<?xml version="1.0" encoding="UTF-8" standalone="no"?><!DOCTYPE svg PUBLIC "-//W3C//DTD SVG 1.1//EN" "http://www.w3.org/Graphics/SVG/1.1/DTD/svg11.dtd"><svg width="100%" height="100%" viewBox="0 0 4961 3508" version="1.1" xmlns="http://www.w3.org/2000/svg" xmlns:xlink="http://www.w3.org/1999/xlink" xml:space="preserve" xmlns:serif="http://www.serif.com/" style="fill-rule:evenodd;clip-rule:evenodd;stroke-linecap:round;stroke-linejoin:round;stroke-miterlimit:1.5;"><g><rect x="94.434" y="356.653" width="556.805" height="354.331" style="fill:#f00;"/></g><g><rect x="651.239" y="356.653" width="556.805" height="354.331"/></g><g><rect x="2878.461" y="356.653" width="556.805" height="354.331" style="fill:#5d5d5d;"/></g><g><rect x="1208.045" y="356.653" width="556.805" height="354.331" style="fill:#008bff;"/></g><g><rect x="1764.85" y="356.653" width="556.805" height="354.331" style="fill:#00c646;"/></g><g><rect x="2321.656" y="356.653" width="556.805" height="354.331" style="fill:#fff000;"/><rect x="2878.461" y="140.896" width="1108.592" height="215.757" style="fill:#5d5d5d;"/></g><g><rect x="93.748" y="140.896" width="2784.027" height="215.757" style="fill:#ebebeb;"/></g><g><g transform="matrix(154.039,0,0,154.039,2619.919136,303.868795)"></g><text x="351.83px" y="303.869px" style="font-family:'Arial-BoldMT', 'Arial', sans-serif;font-weight:700;font-size:154.039px;">CABLES BANANE SECURISES</text></g><g><g><rect x="94.434" y="709.544" width="278.149" height="212.598" style="fill:#ebebeb;"/></g><g><g transform="matrix(0.713636,0,0,1,34.76736,-0)"><text x="121.41px" y="859.927px" style="font-family:'Arial-BoldMT', 'Arial', sans-serif;font-weight:700;font-size:124.788px;">25cm</text></g></g></g><g><rect x="3435.267" y="707.825" width="556.3" height="212.598" style="fill:#ebebeb;stroke:#d0d0d0;stroke-width:1px;"/></g><g><rect x="3435.267" y="648.058" width="556.3" height="272.365" style="fill:#d0d0d0;stroke:#d0d0d0;stroke-width:4.16px;"/></g><g><g><rect x="1764.344" y="709.544" width="556.3" height="212.598" style="fill:#ebebeb;"/></g><g><g transform="matrix(0.714286,0,0,1,515.407009,-0)"><text x="1803.926px" y="860.506px" style="font-family:'Arial-BoldMT', 'Arial', sans-serif;font-weight:700;font-size:124.788px;">25cm/50cm</text></g></g></g><g><g><rect x="372.584" y="709.544" width="278.15" height="212.598" style="fill:#5d5d5d;"/></g><g><g transform="matrix(0.713637,0,0,1,114.170335,-0)"><text x="398.69px" y="859.927px" style="font-family:'Arial-BoldMT', 'Arial', sans-serif;font-weight:700;font-size:124.788px;fill:#fff;">50cm</text></g></g></g><g><g><rect x="650.335" y="709.544" width="278.403" height="212.598" style="fill:#ebebeb;"/></g><g><g transform="matrix(0.714286,0,0,1,193.524179,-0)"><text x="677.335px" y="859.927px" style="font-family:'Arial-BoldMT', 'Arial', sans-serif;font-weight:700;font-size:124.788px;">25cm</text></g></g></g><g><g><rect x="928.738" y="709.544" width="278.403" height="212.598" style="fill:#5d5d5d;"/></g><g><g transform="matrix(0.714286,0,0,1,272.819321,-0)"><text x="954.868px" y="859.927px" style="font-family:'Arial-BoldMT', 'Arial', sans-serif;font-weight:700;font-size:124.788px;fill:#fff;">50cm</text></g></g></g><g><g><rect x="2320.969" y="709.544" width="278.403" height="212.598" style="fill:#ebebeb;"/></g><g><g transform="matrix(0.714286,0,0,1,670.847741,-0)"><text x="2347.969px" y="859.927px" style="font-family:'Arial-BoldMT', 'Arial', sans-serif;font-weight:700;font-size:124.788px;">25cm</text></g></g></g><g><g><rect x="2599.372" y="709.544" width="278.403" height="212.598" style="fill:#5d5d5d;"/></g><g><g transform="matrix(0.714286,0,0,1,750.143077,-0)"><text x="2625.502px" y="859.927px" style="font-family:'Arial-BoldMT', 'Arial', sans-serif;font-weight:700;font-size:124.788px;fill:#fff;">50cm</text></g></g></g><g><g><rect x="2877.775" y="709.544" width="278.403" height="212.598" style="fill:#ebebeb;"/></g><g><g transform="matrix(0.714286,0,0,1,829.934839,-0)"><text x="2904.775px" y="859.927px" style="font-family:'Arial-BoldMT', 'Arial', sans-serif;font-weight:700;font-size:124.788px;">25cm</text></g></g></g><g><g><rect x="3156.178" y="709.544" width="278.403" height="212.598" style="fill:#5d5d5d;"/></g><g><g transform="matrix(0.714286,0,0,1,909.230239,-0)"><text x="3182.308px" y="859.927px" style="font-family:'Arial-BoldMT', 'Arial', sans-serif;font-weight:700;font-size:124.788px;fill:#fff;">50cm</text></g></g></g><g><rect x="1207.141" y="709.544" width="557.481" height="212.598" style="fill:#ebebeb;"/></g><g><g transform="matrix(0.715802,0,0,1,354.339707,-0)"><text x="1246.806px" y="860.506px" style="font-family:'Arial-BoldMT', 'Arial', sans-serif;font-weight:700;font-size:124.788px;">25cm/50cm</text></g></g><g><g><rect x="3435.266" y="351.916" width="556.805" height="354.331" style="fill:#d0d0d0;"/></g><g><rect x="3435.519" y="351.916" width="556.3" height="354.33" style="fill:#d0d0d0;stroke:#ebebeb;stroke-width:4.17px;"/></g><g><text x="3457.8px" y="580.749px" style="font-family:'Arial-BoldMT', 'Arial', sans-serif;font-weight:700;font-size:144.458px;">SONDE</text></g></g><g><rect x="2878.967" y="353.494" width="556.3" height="354.33" style="fill:#5d5d5d;stroke:#000;stroke-width:4.17px;"/></g><g><text x="2925.353px" y="606.466px" style="font-family:'Arial-BoldMT', 'Arial', sans-serif;font-weight:700;font-size:211.804px;fill:#fff;">BNC</text></g><text x="4050.305px" y="245.781px" style="font-family:'ArialMT', 'Arial', sans-serif;font-size:115.774px;">D267</text><g transform="matrix(89.257304,0,0,89.257304,4409.55381,355.60682)"></g><text x="4052.35px" y="355.607px" style="font-family:'ArialMT', 'Arial', sans-serif;font-size:89.257px;">Paillasse</text></svg>