<?xml version="1.0" encoding="UTF-8" standalone="no"?>
<!DOCTYPE svg PUBLIC "-//W3C//DTD SVG 1.1//EN" "http://www.w3.org/Graphics/SVG/1.1/DTD/svg11.dtd">
<svg width="100%" height="100%" viewBox="0 0 4961 3508" version="1.1" xmlns="http://www.w3.org/2000/svg" xmlns:xlink="http://www.w3.org/1999/xlink" xml:space="preserve" xmlns:serif="http://www.serif.com/" style="fill-rule:evenodd;clip-rule:evenodd;stroke-linejoin:round;stroke-miterlimit:2;">
    <g transform="matrix(0.874504,0,0,0.425824,-342.426019,-132.024278)">
        <rect x="473.457" y="1367.811" width="3345.486" height="343.359" style="fill:rgb(224,224,224);"/>
    </g>
    <g transform="matrix(1,0,0,1,312.110331,-836.442652)">
        <g transform="matrix(100,0,0,100,1699.276785,1382.930491)">
        </g>
        <text x="765.878px" y="1382.93px" style="font-family:'Arial-BoldMT', 'Arial', sans-serif;font-weight:700;font-size:100px;">CABLES BANANES</text>
    </g>
    <g transform="matrix(0.67027,0,0,1.032787,-62.374317,387.175702)">
        <rect x="199.902" y="202.808" width="872.547" height="287.705" style="fill:rgb(255,0,0);"/>
    </g>
    <g transform="matrix(0.67027,0,0,1.032787,522.467854,387.175702)">
        <rect x="199.902" y="202.808" width="872.547" height="287.705"/>
    </g>
    <g transform="matrix(0.67027,0,0,1.032787,1107.310025,387.175702)">
        <rect x="199.902" y="202.808" width="872.547" height="287.705" style="fill:rgb(0,198,70);"/>
    </g>
    <g transform="matrix(0.67027,0,0,1.032787,1692.152196,387.175702)">
        <rect x="199.902" y="202.808" width="872.547" height="287.705" style="fill:rgb(0,139,255);"/>
    </g>
    <g transform="matrix(0.67027,0,0,1.032787,2276.994366,387.175702)">
        <rect x="199.902" y="202.808" width="872.547" height="287.705" style="fill:rgb(255,240,0);"/>
    </g>
    <g transform="matrix(0.67027,0,0,1.032787,2861.836537,238.606916)">
        <rect x="199.902" y="202.808" width="872.547" height="287.705" style="fill:rgb(93,93,93);"/>
    </g>
    <g transform="matrix(0.67027,0,0,1.549181,3446.678708,133.878085)">
        <rect x="199.902" y="202.808" width="872.547" height="287.705" style="fill:rgb(208,208,208);"/>
    </g>
    <g transform="matrix(1,0,0,1,-128.287985,245.256391)">
        <rect x="3124.113" y="499.946" width="292.421" height="146.211" style="fill:rgb(190,190,190);"/>
    </g>
    <g transform="matrix(1,0,0,1,-128.287985,245.256391)">
        <rect x="3416.534" y="499.946" width="292.421" height="146.211" style="fill:rgb(155,155,155);"/>
    </g>
    <g transform="matrix(1,0,0,1,1376.642885,-583.257729)">
        <g transform="matrix(158.333333,0,0,158.333333,2092.288379,1225.312122)">
        </g>
        <text x="1749.259px" y="1225.312px" style="font-family:'Arial-BoldMT', 'Arial', sans-serif;font-weight:700;font-size:158.333px;fill:white;">BNC</text>
    </g>
    <g transform="matrix(1,0,0,1,1852.958968,-495.37301)">
        <g transform="matrix(150,0,0,150,2282.681445,1219.346953)">
        </g>
        <text x="1749.259px" y="1219.347px" style="font-family:'Arial-BoldMT', 'Arial', sans-serif;font-weight:700;font-size:150px;">SONDE</text>
    </g>
    <g transform="matrix(1,0,0,1,-278.167466,-249.41889)">
        <g transform="matrix(95.833333,0,0,95.833333,3552.371992,1094.597524)">
        </g>
        <text x="3280.641px" y="1094.598px" style="font-family:'Arial-BoldMT', 'Arial', sans-serif;font-weight:700;font-size:95.833px;">25 cm</text>
    </g>
    <g transform="matrix(1,0,0,1,14.253619,-249.41889)">
        <g transform="matrix(95.833333,0,0,95.833333,3552.371992,1094.597524)">
        </g>
        <text x="3280.641px" y="1094.598px" style="font-family:'Arial-BoldMT', 'Arial', sans-serif;font-weight:700;font-size:95.833px;fill:white;">50 cm</text>
    </g>
    <g transform="matrix(0,-1,1,0,3750.926359,5094.72224)">
        <g transform="matrix(50,0,0,50,4516.29255,483.880008)">
        </g>
        <text x="4349.52px" y="483.88px" style="font-family:'ArialMT', 'Arial', sans-serif;font-size:50px;">D070 P</text>
    </g>
    <g transform="matrix(0.874504,0,0,0.425824,-342.426019,766.142236)">
        <rect x="473.457" y="1367.811" width="3345.486" height="343.359" style="fill:rgb(224,224,224);"/>
    </g>
    <g transform="matrix(0.67027,0,0,1.032787,-62.374317,1285.342217)">
        <rect x="199.902" y="202.808" width="872.547" height="287.705" style="fill:rgb(255,0,0);"/>
    </g>
    <g transform="matrix(0.67027,0,0,1.032787,522.467854,1285.342217)">
        <rect x="199.902" y="202.808" width="872.547" height="287.705"/>
    </g>
    <g transform="matrix(0.67027,0,0,1.032787,1107.310025,1285.342217)">
        <rect x="199.902" y="202.808" width="872.547" height="287.705" style="fill:rgb(0,198,70);"/>
    </g>
    <g transform="matrix(0.67027,0,0,1.032787,1692.152196,1285.342217)">
        <rect x="199.902" y="202.808" width="872.547" height="287.705" style="fill:rgb(0,139,255);"/>
    </g>
    <g transform="matrix(0.67027,0,0,1.032787,2276.994366,1285.342217)">
        <rect x="199.902" y="202.808" width="872.547" height="287.705" style="fill:rgb(255,240,0);"/>
    </g>
    <g transform="matrix(0.67027,0,0,1.032787,2861.836537,1136.77343)">
        <rect x="199.902" y="202.808" width="872.547" height="287.705" style="fill:rgb(93,93,93);"/>
    </g>
    <g transform="matrix(0.67027,0,0,1.549181,3446.678708,1032.044599)">
        <rect x="199.902" y="202.808" width="872.547" height="287.705" style="fill:rgb(208,208,208);"/>
    </g>
    <g transform="matrix(1,0,0,1,-128.287985,1143.422905)">
        <rect x="3124.113" y="499.946" width="292.421" height="146.211" style="fill:rgb(190,190,190);"/>
    </g>
    <g transform="matrix(1,0,0,1,-128.287985,1143.422905)">
        <rect x="3416.534" y="499.946" width="292.421" height="146.211" style="fill:rgb(155,155,155);"/>
    </g>
    <g transform="matrix(1,0,0,1,1361.377479,314.908786)">
        <g transform="matrix(158.333333,0,0,158.333333,2092.288379,1225.312122)">
        </g>
        <text x="1749.259px" y="1225.312px" style="font-family:'Arial-BoldMT', 'Arial', sans-serif;font-weight:700;font-size:158.333px;fill:white;">BNC</text>
    </g>
    <g transform="matrix(1,0,0,1,1852.958968,402.793504)">
        <g transform="matrix(150,0,0,150,2282.681445,1219.346953)">
        </g>
        <text x="1749.259px" y="1219.347px" style="font-family:'Arial-BoldMT', 'Arial', sans-serif;font-weight:700;font-size:150px;">SONDE</text>
    </g>
    <g transform="matrix(1,0,0,1,-271.518413,648.747624)">
        <g transform="matrix(95.833333,0,0,95.833333,3552.371992,1094.597524)">
        </g>
        <text x="3280.641px" y="1094.598px" style="font-family:'Arial-BoldMT', 'Arial', sans-serif;font-weight:700;font-size:95.833px;">25 cm</text>
    </g>
    <g transform="matrix(1,0,0,1,20.902672,648.747624)">
        <g transform="matrix(95.833333,0,0,95.833333,3552.371992,1094.597524)">
        </g>
        <text x="3280.641px" y="1094.598px" style="font-family:'Arial-BoldMT', 'Arial', sans-serif;font-weight:700;font-size:95.833px;fill:white;">50 cm</text>
    </g>
    <g transform="matrix(0,-1,1,0,3750.926359,5992.888754)">
        <g transform="matrix(50,0,0,50,4516.29255,483.880008)">
        </g>
        <text x="4349.52px" y="483.88px" style="font-family:'ArialMT', 'Arial', sans-serif;font-size:50px;">D261 P</text>
    </g>
    <g transform="matrix(1,0,0,1,276.265163,61.723863)">
        <g transform="matrix(100,0,0,100,1699.276785,1382.930491)">
        </g>
        <text x="765.878px" y="1382.93px" style="font-family:'Arial-BoldMT', 'Arial', sans-serif;font-weight:700;font-size:100px;">CABLES BANANES</text>
    </g>
</svg>
