<?xml version="1.0" encoding="UTF-8" standalone="no"?><!DOCTYPE svg PUBLIC "-//W3C//DTD SVG 1.1//EN" "http://www.w3.org/Graphics/SVG/1.1/DTD/svg11.dtd"><svg width="100%" height="100%" viewBox="0 0 4961 3508" version="1.1" xmlns="http://www.w3.org/2000/svg" xmlns:xlink="http://www.w3.org/1999/xlink" xml:space="preserve" xmlns:serif="http://www.serif.com/" style="fill-rule:evenodd;clip-rule:evenodd;stroke-linecap:round;stroke-linejoin:round;stroke-miterlimit:1.5;"><g><rect x="94.434" y="356.653" width="556.805" height="354.331" style="fill:#f00;"/></g><g><rect x="651.239" y="356.653" width="556.805" height="354.331"/></g><g><rect x="2878.461" y="355.073" width="556.805" height="354.331" style="fill:#5d5d5d;"/></g><g><rect x="1208.045" y="356.653" width="556.805" height="354.331" style="fill:#008bff;"/></g><g><rect x="1764.85" y="356.653" width="556.805" height="354.331" style="fill:#00c646;"/></g><g><rect x="2321.656" y="356.653" width="556.805" height="354.331" style="fill:#fff000;"/></g><g><rect x="94.434" y="140.896" width="2785.009" height="212.598" style="fill:#ebebeb;"/><rect x="2879.443" y="140.896" width="1112.124" height="212.598" style="fill:#5d5d5d;"/></g><g><g transform="matrix(1,0,0,1,819.599131,302.289515)"><text x="0px" y="0px" style="font-family:'Arial-BoldMT', 'Arial', sans-serif;font-weight:700;font-size:154.039px;">CABLES</text><text x="676.102px" y="0px" style="font-family:'Arial-BoldMT', 'Arial', sans-serif;font-weight:700;font-size:154.039px;">BANANE</text></g></g><g><g><rect x="3435.266" y="351.916" width="556.805" height="354.331" style="fill:#d0d0d0;"/></g><g><rect x="3435.518" y="351.917" width="556.3" height="354.33" style="fill:#d0d0d0;stroke:#ebebeb;stroke-width:4.17px;"/></g><g><text x="3457.799px" y="580.749px" style="font-family:'Arial-BoldMT', 'Arial', sans-serif;font-weight:700;font-size:144.458px;">SONDE</text></g></g><g><rect x="2878.714" y="355.074" width="556.3" height="354.33" style="fill:#5d5d5d;stroke:#000;stroke-width:4.17px;"/></g><g><text x="2925.1px" y="608.046px" style="font-family:'Arial-BoldMT', 'Arial', sans-serif;font-weight:700;font-size:211.804px;fill:#fff;">BNC</text></g><text x="4029.82px" y="231.3px" style="font-family:'ArialMT', 'Arial', sans-serif;font-size:83.317px;">D283</text><g transform="matrix(89.257304,0,0,89.257304,4402.227003,330.605507)"></g><text x="4045.023px" y="330.606px" style="font-family:'ArialMT', 'Arial', sans-serif;font-size:89.257px;">Paillasse</text></svg>