<?xml version="1.0" encoding="UTF-8" standalone="no"?>
<!DOCTYPE svg PUBLIC "-//W3C//DTD SVG 1.1//EN" "http://www.w3.org/Graphics/SVG/1.1/DTD/svg11.dtd">
<svg width="100%" height="100%" viewBox="0 0 4961 3508" version="1.1" xmlns="http://www.w3.org/2000/svg" xmlns:xlink="http://www.w3.org/1999/xlink" xml:space="preserve" xmlns:serif="http://www.serif.com/" style="fill-rule:evenodd;clip-rule:evenodd;stroke-linecap:round;stroke-linejoin:round;stroke-miterlimit:1.5;">
    <g transform="matrix(0.962503,0,0,0.962503,201.998807,-1175.913199)">
        <rect x="342.334" y="1303.569" width="4049.48" height="551.509" style="fill:white;"/>
        <g transform="matrix(1,0,0,0.133918,0,1479.403801)">
            <rect x="342.334" y="1303.569" width="4049.48" height="551.509" style="fill:rgb(255,0,0);"/>
        </g>
        <g transform="matrix(1,0,0,0.130334,0,1557.933718)">
            <rect x="342.334" y="1303.569" width="4049.48" height="551.509"/>
        </g>
        <g transform="matrix(1.038957,0,0,1.038957,-13.336446,-50.783722)">
            <g transform="matrix(200,0,0,200,3794.814637,1543.784583)">
            </g>
            <text x="787.49px" y="1543.785px" style="font-family:'Arial-BoldMT', 'Arial', sans-serif;font-weight:700;font-size:200px;">CORDONS POUR MUL<tspan x="2917.08px 3039.248px " y="1543.785px 1543.785px ">TI</tspan>METRE</text>
        </g>
        <g transform="matrix(0,1.038957,-1.038957,0,604.333698,1453.42285)">
            <text x="15.984px" y="345.014px" style="font-family:'ArialMT', 'Arial', sans-serif;font-size:58.333px;">D050 M</text>
        </g>
    </g>
    <g id="D050-P" serif:id="D050 P" transform="matrix(1.177975,0,0,1,45.771436,1530.104696)">
        <g>
            <g transform="matrix(0.606969,0,0,0.712876,-1523.131235,-705.185577)">
                <rect x="3188.746" y="1626.343" width="677.961" height="331.363" style="stroke:black;stroke-width:5.84px;"/>
            </g>
            <g transform="matrix(0.606969,0,0,0.712876,-1109.535996,-705.185577)">
                <rect x="3188.746" y="1626.343" width="677.961" height="331.363" style="fill:rgb(255,0,0);stroke:rgb(255,0,0);stroke-width:5.84px;"/>
            </g>
            <g transform="matrix(0.606969,0,0,0.712876,-695.940756,-705.185577)">
                <rect x="3188.746" y="1626.343" width="677.961" height="331.363" style="fill:rgb(255,240,0);stroke:rgb(255,240,0);stroke-width:5.84px;"/>
            </g>
            <g transform="matrix(0.606969,0,0,0.712876,-282.345517,-705.185577)">
                <rect x="3188.746" y="1626.343" width="677.961" height="331.363" style="fill:rgb(0,139,255);stroke:rgb(0,139,255);stroke-width:5.84px;"/>
            </g>
            <g transform="matrix(0.606969,0,0,0.712876,544.844962,-705.185577)">
                <rect x="3188.746" y="1626.343" width="677.961" height="331.363" style="fill:rgb(255,240,0);stroke:rgb(255,240,0);stroke-width:5.84px;"/>
            </g>
            <g transform="matrix(0.606969,0,0,0.071288,544.844962,526.226714)">
                <rect x="3188.746" y="1626.343" width="677.961" height="331.363" style="fill:rgb(0,198,70);stroke:rgb(0,198,70);stroke-width:8.2px;"/>
            </g>
            <g transform="matrix(0.606969,0,0,0.071288,544.844962,471.157446)">
                <rect x="3188.746" y="1626.343" width="677.961" height="331.363" style="fill:rgb(0,198,70);stroke:rgb(0,198,70);stroke-width:8.2px;"/>
            </g>
            <g transform="matrix(0.848915,0,0,1,808.612894,-273.516644)">
                <g transform="matrix(58.333333,0,0,58.333333,2310.442177,820.945677)">
                </g>
                <text x="2112.741px" y="820.946px" style="font-family:'Arial-BoldMT', 'Arial', sans-serif;font-weight:700;font-size:58.333px;">TERRE</text>
            </g>
            <g transform="matrix(0.606969,0,0,0.712876,131.249723,-705.185577)">
                <rect x="3188.746" y="1626.343" width="677.961" height="331.363" style="fill:rgb(0,198,70);stroke:rgb(0,198,70);stroke-width:5.84px;"/>
            </g>
            <g transform="matrix(0.606969,0,0,0.712876,958.440202,-705.185577)">
                <rect x="3188.746" y="1626.343" width="677.961" height="331.363" style="fill:rgb(93,93,93);stroke:black;stroke-width:5.84px;"/>
            </g>
            <g transform="matrix(0.606969,0,0,0.712876,1369.941314,-705.185577)">
                <rect x="3188.746" y="1626.343" width="677.961" height="331.363" style="fill:rgb(208,208,208);stroke:rgb(93,93,93);stroke-width:5.84px;"/>
            </g>
            <g transform="matrix(0.848915,0,0,1,1492.768096,147.589576)">
                <g transform="matrix(58.333333,0,0,58.333333,2469.207144,445.594074)">
                </g>
                <text x="2290.96px" y="445.594px" style="font-family:'Arial-BoldMT', 'Arial', sans-serif;font-weight:700;font-size:58.333px;">Sonde</text>
            </g>
            <g transform="matrix(0.848915,0,0,1,1079.172856,147.589576)">
                <g transform="matrix(58.333333,0,0,58.333333,2443.273306,445.594074)">
                </g>
                <text x="2316.894px" y="445.594px" style="font-family:'Arial-BoldMT', 'Arial', sans-serif;font-weight:700;font-size:58.333px;fill:white;">BNC</text>
            </g>
        </g>
        <g transform="matrix(0,1,-0.848915,0,628.635014,454.195321)">
            <text x="20.826px" y="345.014px" style="font-family:'ArialMT', 'Arial', sans-serif;font-size:58.333px;">D050 P</text>
        </g>
    </g>
    <g transform="matrix(0.962503,0,0,0.962503,201.998807,-1175.913199)">
        <g transform="matrix(1,0,0,1,0,551.509386)">
            <rect x="342.334" y="1303.569" width="4049.48" height="551.509" style="fill:white;"/>
        </g>
        <g transform="matrix(1,0,0,0.133918,0,2030.913188)">
            <rect x="342.334" y="1303.569" width="4049.48" height="551.509" style="fill:rgb(255,0,0);"/>
        </g>
        <g transform="matrix(1,0,0,0.130334,0,2109.443105)">
            <rect x="342.334" y="1303.569" width="4049.48" height="551.509"/>
        </g>
        <g transform="matrix(1.038957,0,0,1.038957,-13.336446,500.725665)">
            <g transform="matrix(200,0,0,200,3824.648621,1543.784583)">
            </g>
            <text x="757.656px" y="1543.785px" style="font-family:'Arial-BoldMT', 'Arial', sans-serif;font-weight:700;font-size:200px;">CORDONS SONDE DE TENSION</text>
        </g>
        <g transform="matrix(0,1.038957,-1.038957,0,604.333698,1953.072979)">
            <text x="15.984px" y="345.014px" style="font-family:'ArialMT', 'Arial', sans-serif;font-size:58.333px;">D050 M</text>
        </g>
    </g>
    <g transform="matrix(0.962503,0,0,0.962503,201.998807,-1064.529662)">
        <g transform="matrix(1,0,0,1,-0,1103.018772)">
            <rect x="342.334" y="1303.569" width="4049.48" height="551.509" style="fill:white;"/>
        </g>
        <g transform="matrix(1.038957,0,0,1.038957,-13.336446,1052.235051)">
            <text x="1046.524px" y="1585.033px" style="font-family:'Arial-BoldMT', 'Arial', sans-serif;font-weight:700;font-size:200px;">SONDES OSCILLOSCOPE</text>
            <g transform="matrix(125,0,0,125,2664.504578,1778.770574)">
            </g>
            <text x="1917.8px" y="1778.771px" style="font-family:'Arial-BoldMT', 'Arial', sans-serif;font-weight:700;font-size:125px;">+ KEYSIGHT</text>
        </g>
        <g transform="matrix(0,1.038957,-1.038957,0,604.333698,2559.630773)">
            <text x="15.984px" y="345.014px" style="font-family:'ArialMT', 'Arial', sans-serif;font-size:58.333px;">D050 M</text>
        </g>
    </g>
</svg>
