<?xml version="1.0" encoding="UTF-8" standalone="no"?>
<!DOCTYPE svg PUBLIC "-//W3C//DTD SVG 1.1//EN" "http://www.w3.org/Graphics/SVG/1.1/DTD/svg11.dtd">
<svg width="100%" height="100%" viewBox="0 0 2481 3508" version="1.1" xmlns="http://www.w3.org/2000/svg" xmlns:xlink="http://www.w3.org/1999/xlink" xml:space="preserve" xmlns:serif="http://www.serif.com/" style="fill-rule:evenodd;clip-rule:evenodd;stroke-linejoin:round;stroke-miterlimit:2;">
    <g transform="matrix(1,0,0,1,-9.194945,-220.678676)">
        <g transform="matrix(0.518995,0,0,0.542751,-0.567171,202.515496)">
            <path d="M1240.157,224.127L1240.157,387.337C1240.157,432.376 1201.918,468.943 1154.817,468.943L187.623,468.943C140.522,468.943 102.282,432.376 102.282,387.337L102.282,224.127C102.282,179.088 140.522,142.522 187.623,142.522L1154.817,142.522C1201.918,142.522 1240.157,179.088 1240.157,224.127Z" style="fill:rgb(235,235,235);"/>
        </g>
        <g transform="matrix(1.039563,0,0,1.274006,-66.792564,77.846235)">
            <path d="M671.484,197.974L671.484,258.234C671.484,274.863 654.938,288.364 634.559,288.364L163.055,288.364C142.676,288.364 126.13,274.863 126.13,258.234L126.13,197.974C126.13,181.345 142.676,167.844 163.055,167.844L634.559,167.844C654.938,167.844 671.484,181.345 671.484,197.974Z" style="fill:rgb(32,224,187);"/>
        </g>
        <g transform="matrix(1.084415,0,0,1.084415,39.161897,74.723512)">
            <g transform="matrix(107.176787,0,0,107.176787,442.25692,308.726137)">
            </g>
            <text x="156.26px" y="308.726px" style="font-family:'ArialMT', 'Arial', sans-serif;font-size:107.177px;">C103</text>
        </g>
    </g>
    <g transform="matrix(1,0,0,1,-120.642107,-67.60959)">
        <g transform="matrix(0.518995,0,0,0.542751,732.108869,49.446409)">
            <path d="M1240.157,224.127L1240.157,387.337C1240.157,432.376 1201.918,468.943 1154.817,468.943L187.623,468.943C140.522,468.943 102.282,432.376 102.282,387.337L102.282,224.127C102.282,179.088 140.522,142.522 187.623,142.522L1154.817,142.522C1201.918,142.522 1240.157,179.088 1240.157,224.127Z" style="fill:rgb(235,235,235);"/>
        </g>
        <g transform="matrix(1.039563,0,0,1.274006,665.883476,-75.222851)">
            <path d="M671.484,197.974L671.484,258.234C671.484,274.863 654.938,288.364 634.559,288.364L163.055,288.364C142.676,288.364 126.13,274.863 126.13,258.234L126.13,197.974C126.13,181.345 142.676,167.844 163.055,167.844L634.559,167.844C654.938,167.844 671.484,181.345 671.484,197.974Z" style="fill:rgb(127,140,141);"/>
        </g>
        <g transform="matrix(1.084415,0,0,1.084415,770.390811,-78.345574)">
            <g transform="matrix(107.176787,0,0,107.176787,412.479776,308.726137)">
            </g>
            <text x="156.26px" y="308.726px" style="font-family:'ArialMT', 'Arial', sans-serif;font-size:107.177px;">C104</text>
        </g>
    </g>
    <g transform="matrix(1,0,0,1,501.474054,-68.107244)">
        <g transform="matrix(0.518995,0,0,0.542751,732.108869,49.446409)">
            <path d="M1240.157,224.127L1240.157,387.337C1240.157,432.376 1201.918,468.943 1154.817,468.943L187.623,468.943C140.522,468.943 102.282,432.376 102.282,387.337L102.282,224.127C102.282,179.088 140.522,142.522 187.623,142.522L1154.817,142.522C1201.918,142.522 1240.157,179.088 1240.157,224.127Z" style="fill:rgb(235,235,235);"/>
        </g>
        <g transform="matrix(1.039563,0,0,1.274006,665.883476,-75.222851)">
            <path d="M671.484,197.974L671.484,258.234C671.484,274.863 654.938,288.364 634.559,288.364L163.055,288.364C142.676,288.364 126.13,274.863 126.13,258.234L126.13,197.974C126.13,181.345 142.676,167.844 163.055,167.844L634.559,167.844C654.938,167.844 671.484,181.345 671.484,197.974Z" style="fill:rgb(241,196,15);"/>
        </g>
        <g transform="matrix(1.084415,0,0,1.084415,770.390811,-78.345574)">
            <g transform="matrix(107.176787,0,0,107.176787,412.479776,308.726137)">
            </g>
            <text x="156.26px" y="308.726px" style="font-family:'ArialMT', 'Arial', sans-serif;font-size:107.177px;">C105</text>
        </g>
    </g>
    <g transform="matrix(1,0,0,1,501.474054,134.904548)">
        <g transform="matrix(0.518995,0,0,0.542751,732.108869,49.446409)">
            <path d="M1240.157,224.127L1240.157,387.337C1240.157,432.376 1201.918,468.943 1154.817,468.943L187.623,468.943C140.522,468.943 102.282,432.376 102.282,387.337L102.282,224.127C102.282,179.088 140.522,142.522 187.623,142.522L1154.817,142.522C1201.918,142.522 1240.157,179.088 1240.157,224.127Z" style="fill:rgb(235,235,235);"/>
        </g>
        <g transform="matrix(1.039563,0,0,1.274006,665.883476,-75.222851)">
            <path d="M671.484,197.974L671.484,258.234C671.484,274.863 654.938,288.364 634.559,288.364L163.055,288.364C142.676,288.364 126.13,274.863 126.13,258.234L126.13,197.974C126.13,181.345 142.676,167.844 163.055,167.844L634.559,167.844C654.938,167.844 671.484,181.345 671.484,197.974Z" style="fill:rgb(230,126,34);"/>
        </g>
        <g transform="matrix(1.084415,0,0,1.084415,770.390811,-78.345574)">
            <g transform="matrix(107.176787,0,0,107.176787,412.479776,308.726137)">
            </g>
            <text x="156.26px" y="308.726px" style="font-family:'ArialMT', 'Arial', sans-serif;font-size:107.177px;">C204</text>
        </g>
    </g>
    <g transform="matrix(1,0,0,1,-9.194945,-158.778683)">
        <g transform="matrix(0.518995,0,0,0.542751,-0.567171,749.402051)">
            <path d="M1240.157,224.127L1240.157,387.337C1240.157,432.376 1201.918,468.943 1154.817,468.943L187.623,468.943C140.522,468.943 102.282,432.376 102.282,387.337L102.282,224.127C102.282,179.088 140.522,142.522 187.623,142.522L1154.817,142.522C1201.918,142.522 1240.157,179.088 1240.157,224.127Z" style="fill:rgb(235,235,235);"/>
        </g>
        <g transform="matrix(1.039563,0,0,1.274006,-66.792564,624.732791)">
            <path d="M671.484,197.974L671.484,258.234C671.484,274.863 654.938,288.364 634.559,288.364L163.055,288.364C142.676,288.364 126.13,274.863 126.13,258.234L126.13,197.974C126.13,181.345 142.676,167.844 163.055,167.844L634.559,167.844C654.938,167.844 671.484,181.345 671.484,197.974Z" style="fill:rgb(192,57,43);"/>
        </g>
        <g transform="matrix(1.084415,0,0,1.084415,37.714771,621.610067)">
            <g transform="matrix(107.176787,0,0,107.176787,412.479776,308.726137)">
            </g>
            <text x="156.26px" y="308.726px" style="font-family:'ArialMT', 'Arial', sans-serif;font-size:107.177px;fill:white;">C210</text>
        </g>
    </g>
    <g transform="matrix(1,0,0,1,-9.194945,-184.293351)">
        <g transform="matrix(0.518995,0,0,0.542751,1242.777868,571.6561)">
            <path d="M1240.157,224.127L1240.157,387.337C1240.157,432.376 1201.918,468.943 1154.817,468.943L187.623,468.943C140.522,468.943 102.282,432.376 102.282,387.337L102.282,224.127C102.282,179.088 140.522,142.522 187.623,142.522L1154.817,142.522C1201.918,142.522 1240.157,179.088 1240.157,224.127Z" style="fill:rgb(235,235,235);"/>
        </g>
        <g transform="matrix(1.039563,0,0,1.274006,1176.552476,446.98684)">
            <path d="M671.484,197.974L671.484,258.234C671.484,274.863 654.938,288.364 634.559,288.364L163.055,288.364C142.676,288.364 126.13,274.863 126.13,258.234L126.13,197.974C126.13,181.345 142.676,167.844 163.055,167.844L634.559,167.844C654.938,167.844 671.484,181.345 671.484,197.974Z" style="fill:rgb(192,57,43);"/>
        </g>
        <g transform="matrix(1.084415,0,0,1.084415,1281.05981,443.864116)">
            <g transform="matrix(107.176787,0,0,107.176787,412.479776,308.726137)">
            </g>
            <text x="156.26px" y="308.726px" style="font-family:'ArialMT', 'Arial', sans-serif;font-size:107.177px;fill:white;">C209</text>
        </g>
    </g>
    <g transform="matrix(1,0,0,1,-21.005968,-188.350742)">
        <g transform="matrix(0.518995,0,0,0.542751,11.243853,981.902959)">
            <path d="M1240.157,224.127L1240.157,387.337C1240.157,432.376 1201.918,468.943 1154.817,468.943L187.623,468.943C140.522,468.943 102.282,432.376 102.282,387.337L102.282,224.127C102.282,179.088 140.522,142.522 187.623,142.522L1154.817,142.522C1201.918,142.522 1240.157,179.088 1240.157,224.127Z" style="fill:rgb(235,235,235);"/>
        </g>
        <g transform="matrix(1.039563,0,0,1.274006,-54.98154,857.233699)">
            <path d="M671.484,197.974L671.484,258.234C671.484,274.863 654.938,288.364 634.559,288.364L163.055,288.364C142.676,288.364 126.13,274.863 126.13,258.234L126.13,197.974C126.13,181.345 142.676,167.844 163.055,167.844L634.559,167.844C654.938,167.844 671.484,181.345 671.484,197.974Z" style="fill:rgb(60,125,34);"/>
        </g>
        <g transform="matrix(1.084415,0,0,1.084415,49.525795,854.110975)">
            <g transform="matrix(107.176787,0,0,107.176787,412.479776,308.726137)">
            </g>
            <text x="156.26px" y="308.726px" style="font-family:'ArialMT', 'Arial', sans-serif;font-size:107.177px;fill:white;">C305</text>
        </g>
    </g>
    <g transform="matrix(1,0,0,1,-21.005968,-208.644913)">
        <g transform="matrix(0.518995,0,0,0.542751,11.243853,1205.12598)">
            <path d="M1240.157,224.127L1240.157,387.337C1240.157,432.376 1201.918,468.943 1154.817,468.943L187.623,468.943C140.522,468.943 102.282,432.376 102.282,387.337L102.282,224.127C102.282,179.088 140.522,142.522 187.623,142.522L1154.817,142.522C1201.918,142.522 1240.157,179.088 1240.157,224.127Z" style="fill:rgb(235,235,235);"/>
        </g>
        <g transform="matrix(1.039563,0,0,1.274006,-54.98154,1080.45672)">
            <path d="M671.484,197.974L671.484,258.234C671.484,274.863 654.938,288.364 634.559,288.364L163.055,288.364C142.676,288.364 126.13,274.863 126.13,258.234L126.13,197.974C126.13,181.345 142.676,167.844 163.055,167.844L634.559,167.844C654.938,167.844 671.484,181.345 671.484,197.974Z" style="fill:rgb(52,73,94);"/>
        </g>
        <g transform="matrix(1.084415,0,0,1.084415,49.525795,1077.333996)">
            <g transform="matrix(107.176787,0,0,107.176787,412.479776,308.726137)">
            </g>
            <text x="156.26px" y="308.726px" style="font-family:'ArialMT', 'Arial', sans-serif;font-size:107.177px;fill:white;">D060</text>
        </g>
    </g>
    <g transform="matrix(1,0,0,1,-120.642107,1149.963507)">
        <g transform="matrix(0.518995,0,0,0.542751,732.108869,49.446409)">
            <path d="M1240.157,224.127L1240.157,387.337C1240.157,432.376 1201.918,468.943 1154.817,468.943L187.623,468.943C140.522,468.943 102.282,432.376 102.282,387.337L102.282,224.127C102.282,179.088 140.522,142.522 187.623,142.522L1154.817,142.522C1201.918,142.522 1240.157,179.088 1240.157,224.127Z" style="fill:rgb(235,235,235);"/>
        </g>
        <g transform="matrix(1.039563,0,0,1.274006,665.883476,-75.222851)">
            <path d="M671.484,197.974L671.484,258.234C671.484,274.863 654.938,288.364 634.559,288.364L163.055,288.364C142.676,288.364 126.13,274.863 126.13,258.234L126.13,197.974C126.13,181.345 142.676,167.844 163.055,167.844L634.559,167.844C654.938,167.844 671.484,181.345 671.484,197.974Z" style="fill:rgb(255,153,255);"/>
        </g>
        <g transform="matrix(1.084415,0,0,1.084415,770.390811,-78.345574)">
            <g transform="matrix(107.176787,0,0,107.176787,412.479776,308.726137)">
            </g>
            <text x="156.26px" y="308.726px" style="font-family:'ArialMT', 'Arial', sans-serif;font-size:107.177px;">D283</text>
        </g>
    </g>
    <g transform="matrix(1,0,0,1,-741.870985,135.31926)">
        <g transform="matrix(0.518995,0,0,0.542751,732.108869,49.446409)">
            <path d="M1240.157,224.127L1240.157,387.337C1240.157,432.376 1201.918,468.943 1154.817,468.943L187.623,468.943C140.522,468.943 102.282,432.376 102.282,387.337L102.282,224.127C102.282,179.088 140.522,142.522 187.623,142.522L1154.817,142.522C1201.918,142.522 1240.157,179.088 1240.157,224.127Z" style="fill:rgb(235,235,235);"/>
        </g>
        <g transform="matrix(1.039563,0,0,1.274006,665.883476,-75.222851)">
            <path d="M671.484,197.974L671.484,258.234C671.484,274.863 654.938,288.364 634.559,288.364L163.055,288.364C142.676,288.364 126.13,274.863 126.13,258.234L126.13,197.974C126.13,181.345 142.676,167.844 163.055,167.844L634.559,167.844C654.938,167.844 671.484,181.345 671.484,197.974Z" style="fill:rgb(5,212,0);"/>
        </g>
        <g transform="matrix(1.084415,0,0,1.084415,770.390811,-78.345574)">
            <g transform="matrix(107.176787,0,0,107.176787,412.479776,308.726137)">
            </g>
            <text x="156.26px" y="308.726px" style="font-family:'ArialMT', 'Arial', sans-serif;font-size:107.177px;">C106</text>
        </g>
    </g>
    <g transform="matrix(1,0,0,1,-120.642107,135.31926)">
        <g transform="matrix(0.518995,0,0,0.542751,732.108869,49.446409)">
            <path d="M1240.157,224.127L1240.157,387.337C1240.157,432.376 1201.918,468.943 1154.817,468.943L187.623,468.943C140.522,468.943 102.282,432.376 102.282,387.337L102.282,224.127C102.282,179.088 140.522,142.522 187.623,142.522L1154.817,142.522C1201.918,142.522 1240.157,179.088 1240.157,224.127Z" style="fill:rgb(235,235,235);"/>
        </g>
        <g transform="matrix(1.039563,0,0,1.274006,665.883476,-75.222851)">
            <path d="M671.484,197.974L671.484,258.234C671.484,274.863 654.938,288.364 634.559,288.364L163.055,288.364C142.676,288.364 126.13,274.863 126.13,258.234L126.13,197.974C126.13,181.345 142.676,167.844 163.055,167.844L634.559,167.844C654.938,167.844 671.484,181.345 671.484,197.974Z" style="fill:rgb(255,255,0);"/>
        </g>
        <g transform="matrix(1.084415,0,0,1.084415,770.390811,-78.345574)">
            <g transform="matrix(107.176787,0,0,107.176787,412.479776,308.726137)">
            </g>
            <text x="156.26px" y="308.726px" style="font-family:'ArialMT', 'Arial', sans-serif;font-size:107.177px;">C203</text>
        </g>
    </g>
    <g transform="matrix(1,0,0,1,-741.870985,338.248109)">
        <g transform="matrix(0.518995,0,0,0.542751,732.108869,49.446409)">
            <path d="M1240.157,224.127L1240.157,387.337C1240.157,432.376 1201.918,468.943 1154.817,468.943L187.623,468.943C140.522,468.943 102.282,432.376 102.282,387.337L102.282,224.127C102.282,179.088 140.522,142.522 187.623,142.522L1154.817,142.522C1201.918,142.522 1240.157,179.088 1240.157,224.127Z" style="fill:rgb(235,235,235);"/>
        </g>
        <g transform="matrix(1.039563,0,0,1.274006,665.883476,-75.222851)">
            <path d="M671.484,197.974L671.484,258.234C671.484,274.863 654.938,288.364 634.559,288.364L163.055,288.364C142.676,288.364 126.13,274.863 126.13,258.234L126.13,197.974C126.13,181.345 142.676,167.844 163.055,167.844L634.559,167.844C654.938,167.844 671.484,181.345 671.484,197.974Z" style="fill:rgb(46,204,113);"/>
        </g>
        <g transform="matrix(1.084415,0,0,1.084415,770.390811,-78.345574)">
            <g transform="matrix(107.176787,0,0,107.176787,412.479776,308.726137)">
            </g>
            <text x="156.26px" y="308.726px" style="font-family:'ArialMT', 'Arial', sans-serif;font-size:107.177px;">C205</text>
        </g>
    </g>
    <g transform="matrix(1,0,0,1,-120.642107,338.248109)">
        <g transform="matrix(0.518995,0,0,0.542751,732.108869,49.446409)">
            <path d="M1240.157,224.127L1240.157,387.337C1240.157,432.376 1201.918,468.943 1154.817,468.943L187.623,468.943C140.522,468.943 102.282,432.376 102.282,387.337L102.282,224.127C102.282,179.088 140.522,142.522 187.623,142.522L1154.817,142.522C1201.918,142.522 1240.157,179.088 1240.157,224.127Z" style="fill:rgb(235,235,235);"/>
        </g>
        <g transform="matrix(1.039563,0,0,1.274006,665.883476,-75.222851)">
            <path d="M671.484,197.974L671.484,258.234C671.484,274.863 654.938,288.364 634.559,288.364L163.055,288.364C142.676,288.364 126.13,274.863 126.13,258.234L126.13,197.974C126.13,181.345 142.676,167.844 163.055,167.844L634.559,167.844C654.938,167.844 671.484,181.345 671.484,197.974Z" style="fill:rgb(41,128,185);"/>
        </g>
        <g transform="matrix(1.084415,0,0,1.084415,770.390811,-78.345574)">
            <g transform="matrix(107.176787,0,0,107.176787,412.479776,308.726137)">
            </g>
            <text x="156.26px" y="308.726px" style="font-family:'ArialMT', 'Arial', sans-serif;font-size:107.177px;">C206</text>
        </g>
    </g>
    <g transform="matrix(1,0,0,1,-120.642107,541.176959)">
        <g transform="matrix(0.518995,0,0,0.542751,732.108869,49.446409)">
            <path d="M1240.157,224.127L1240.157,387.337C1240.157,432.376 1201.918,468.943 1154.817,468.943L187.623,468.943C140.522,468.943 102.282,432.376 102.282,387.337L102.282,224.127C102.282,179.088 140.522,142.522 187.623,142.522L1154.817,142.522C1201.918,142.522 1240.157,179.088 1240.157,224.127Z" style="fill:rgb(235,235,235);"/>
        </g>
        <g transform="matrix(1.039563,0,0,1.274006,665.883476,-75.222851)">
            <path d="M671.484,197.974L671.484,258.234C671.484,274.863 654.938,288.364 634.559,288.364L163.055,288.364C142.676,288.364 126.13,274.863 126.13,258.234L126.13,197.974C126.13,181.345 142.676,167.844 163.055,167.844L634.559,167.844C654.938,167.844 671.484,181.345 671.484,197.974Z" style="fill:rgb(189,195,199);"/>
        </g>
        <g transform="matrix(1.084415,0,0,1.084415,770.390811,-78.345574)">
            <g transform="matrix(107.176787,0,0,107.176787,412.479776,308.726137)">
            </g>
            <text x="156.26px" y="308.726px" style="font-family:'ArialMT', 'Arial', sans-serif;font-size:107.177px;">C303</text>
        </g>
    </g>
    <g transform="matrix(1,0,0,1,501.474054,540.928131)">
        <g transform="matrix(0.518995,0,0,0.542751,732.108869,49.446409)">
            <path d="M1240.157,224.127L1240.157,387.337C1240.157,432.376 1201.918,468.943 1154.817,468.943L187.623,468.943C140.522,468.943 102.282,432.376 102.282,387.337L102.282,224.127C102.282,179.088 140.522,142.522 187.623,142.522L1154.817,142.522C1201.918,142.522 1240.157,179.088 1240.157,224.127Z" style="fill:rgb(235,235,235);"/>
        </g>
        <g transform="matrix(1.039563,0,0,1.274006,665.883476,-75.222851)">
            <path d="M671.484,197.974L671.484,258.234C671.484,274.863 654.938,288.364 634.559,288.364L163.055,288.364C142.676,288.364 126.13,274.863 126.13,258.234L126.13,197.974C126.13,181.345 142.676,167.844 163.055,167.844L634.559,167.844C654.938,167.844 671.484,181.345 671.484,197.974Z" style="fill:rgb(247,199,172);"/>
        </g>
        <g transform="matrix(1.084415,0,0,1.084415,770.390811,-78.345574)">
            <g transform="matrix(107.176787,0,0,107.176787,412.479776,308.726137)">
            </g>
            <text x="156.26px" y="308.726px" style="font-family:'ArialMT', 'Arial', sans-serif;font-size:107.177px;">C304</text>
        </g>
    </g>
    <g transform="matrix(1,0,0,1,-120.642107,744.105808)">
        <g transform="matrix(0.518995,0,0,0.542751,732.108869,49.446409)">
            <path d="M1240.157,224.127L1240.157,387.337C1240.157,432.376 1201.918,468.943 1154.817,468.943L187.623,468.943C140.522,468.943 102.282,432.376 102.282,387.337L102.282,224.127C102.282,179.088 140.522,142.522 187.623,142.522L1154.817,142.522C1201.918,142.522 1240.157,179.088 1240.157,224.127Z" style="fill:rgb(235,235,235);"/>
        </g>
        <g transform="matrix(1.039563,0,0,1.274006,665.883476,-75.222851)">
            <path d="M671.484,197.974L671.484,258.234C671.484,274.863 654.938,288.364 634.559,288.364L163.055,288.364C142.676,288.364 126.13,274.863 126.13,258.234L126.13,197.974C126.13,181.345 142.676,167.844 163.055,167.844L634.559,167.844C654.938,167.844 671.484,181.345 671.484,197.974Z" style="fill:rgb(255,0,102);"/>
        </g>
        <g transform="matrix(1.084415,0,0,1.084415,770.390811,-78.345574)">
            <g transform="matrix(107.176787,0,0,107.176787,412.479776,308.726137)">
            </g>
            <text x="156.26px" y="308.726px" style="font-family:'ArialMT', 'Arial', sans-serif;font-size:107.177px;">C306</text>
        </g>
    </g>
    <g transform="matrix(1,0,0,1,501.474054,743.939923)">
        <g transform="matrix(0.518995,0,0,0.542751,732.108869,49.446409)">
            <path d="M1240.157,224.127L1240.157,387.337C1240.157,432.376 1201.918,468.943 1154.817,468.943L187.623,468.943C140.522,468.943 102.282,432.376 102.282,387.337L102.282,224.127C102.282,179.088 140.522,142.522 187.623,142.522L1154.817,142.522C1201.918,142.522 1240.157,179.088 1240.157,224.127Z" style="fill:rgb(235,235,235);"/>
        </g>
        <g transform="matrix(1.039563,0,0,1.274006,665.883476,-75.222851)">
            <path d="M671.484,197.974L671.484,258.234C671.484,274.863 654.938,288.364 634.559,288.364L163.055,288.364C142.676,288.364 126.13,274.863 126.13,258.234L126.13,197.974C126.13,181.345 142.676,167.844 163.055,167.844L634.559,167.844C654.938,167.844 671.484,181.345 671.484,197.974Z" style="fill:rgb(236,240,241);"/>
        </g>
        <g transform="matrix(1.084415,0,0,1.084415,770.390811,-78.345574)">
            <g transform="matrix(107.176787,0,0,107.176787,412.479776,308.726137)">
            </g>
            <text x="156.26px" y="308.726px" style="font-family:'ArialMT', 'Arial', sans-serif;font-size:107.177px;">D050</text>
        </g>
    </g>
    <g transform="matrix(1,0,0,1,-120.642107,947.034657)">
        <g transform="matrix(0.518995,0,0,0.542751,732.108869,49.446409)">
            <path d="M1240.157,224.127L1240.157,387.337C1240.157,432.376 1201.918,468.943 1154.817,468.943L187.623,468.943C140.522,468.943 102.282,432.376 102.282,387.337L102.282,224.127C102.282,179.088 140.522,142.522 187.623,142.522L1154.817,142.522C1201.918,142.522 1240.157,179.088 1240.157,224.127Z" style="fill:rgb(235,235,235);"/>
        </g>
        <g transform="matrix(1.039563,0,0,1.274006,665.883476,-75.222851)">
            <path d="M671.484,197.974L671.484,258.234C671.484,274.863 654.938,288.364 634.559,288.364L163.055,288.364C142.676,288.364 126.13,274.863 126.13,258.234L126.13,197.974C126.13,181.345 142.676,167.844 163.055,167.844L634.559,167.844C654.938,167.844 671.484,181.345 671.484,197.974Z" style="fill:rgb(149,165,166);"/>
        </g>
        <g transform="matrix(1.084415,0,0,1.084415,770.390811,-78.345574)">
            <g transform="matrix(107.176787,0,0,107.176787,412.479776,308.726137)">
            </g>
            <text x="156.26px" y="308.726px" style="font-family:'ArialMT', 'Arial', sans-serif;font-size:107.177px;">D070</text>
        </g>
    </g>
    <g transform="matrix(1,0,0,1,-741.870985,1149.963507)">
        <g transform="matrix(0.518995,0,0,0.542751,732.108869,49.446409)">
            <path d="M1240.157,224.127L1240.157,387.337C1240.157,432.376 1201.918,468.943 1154.817,468.943L187.623,468.943C140.522,468.943 102.282,432.376 102.282,387.337L102.282,224.127C102.282,179.088 140.522,142.522 187.623,142.522L1154.817,142.522C1201.918,142.522 1240.157,179.088 1240.157,224.127Z" style="fill:rgb(235,235,235);"/>
        </g>
        <g transform="matrix(1.039563,0,0,1.274006,665.883476,-75.222851)">
            <path d="M671.484,197.974L671.484,258.234C671.484,274.863 654.938,288.364 634.559,288.364L163.055,288.364C142.676,288.364 126.13,274.863 126.13,258.234L126.13,197.974C126.13,181.345 142.676,167.844 163.055,167.844L634.559,167.844C654.938,167.844 671.484,181.345 671.484,197.974Z" style="fill:rgb(166,201,236);"/>
        </g>
        <g transform="matrix(1.084415,0,0,1.084415,770.390811,-78.345574)">
            <g transform="matrix(107.176787,0,0,107.176787,412.479776,308.726137)">
            </g>
            <text x="156.26px" y="308.726px" style="font-family:'ArialMT', 'Arial', sans-serif;font-size:107.177px;">D267</text>
        </g>
    </g>
    <g transform="matrix(1,0,0,1,501.474054,1149.963507)">
        <g transform="matrix(0.518995,0,0,0.542751,732.108869,49.446409)">
            <path d="M1240.157,224.127L1240.157,387.337C1240.157,432.376 1201.918,468.943 1154.817,468.943L187.623,468.943C140.522,468.943 102.282,432.376 102.282,387.337L102.282,224.127C102.282,179.088 140.522,142.522 187.623,142.522L1154.817,142.522C1201.918,142.522 1240.157,179.088 1240.157,224.127Z" style="fill:rgb(235,235,235);"/>
        </g>
        <g transform="matrix(1.039563,0,0,1.274006,665.883476,-75.222851)">
            <path d="M671.484,197.974L671.484,258.234C671.484,274.863 654.938,288.364 634.559,288.364L163.055,288.364C142.676,288.364 126.13,274.863 126.13,258.234L126.13,197.974C126.13,181.345 142.676,167.844 163.055,167.844L634.559,167.844C654.938,167.844 671.484,181.345 671.484,197.974Z" style="fill:rgb(22,160,133);"/>
        </g>
        <g transform="matrix(1.084415,0,0,1.084415,770.390811,-78.345574)">
            <g transform="matrix(107.176787,0,0,107.176787,412.479776,308.726137)">
            </g>
            <text x="156.26px" y="308.726px" style="font-family:'ArialMT', 'Arial', sans-serif;font-size:107.177px;">D289</text>
        </g>
    </g>
    <g transform="matrix(1,0,0,1,-21.005968,-208.644913)">
        <g transform="matrix(0.518995,0,0,0.542751,1254.588892,1205.043038)">
            <path d="M1240.157,224.127L1240.157,387.337C1240.157,432.376 1201.918,468.943 1154.817,468.943L187.623,468.943C140.522,468.943 102.282,432.376 102.282,387.337L102.282,224.127C102.282,179.088 140.522,142.522 187.623,142.522L1154.817,142.522C1201.918,142.522 1240.157,179.088 1240.157,224.127Z" style="fill:rgb(235,235,235);"/>
        </g>
        <g transform="matrix(1.039563,0,0,1.274006,1188.363499,1080.373777)">
            <path d="M671.484,197.974L671.484,258.234C671.484,274.863 654.938,288.364 634.559,288.364L163.055,288.364C142.676,288.364 126.13,274.863 126.13,258.234L126.13,197.974C126.13,181.345 142.676,167.844 163.055,167.844L634.559,167.844C654.938,167.844 671.484,181.345 671.484,197.974Z" style="fill:rgb(134,14,157);"/>
        </g>
        <g transform="matrix(1.084415,0,0,1.084415,1292.870834,1077.251054)">
            <g transform="matrix(107.176787,0,0,107.176787,412.479776,308.726137)">
            </g>
            <text x="156.26px" y="308.726px" style="font-family:'ArialMT', 'Arial', sans-serif;font-size:107.177px;fill:white;">D261</text>
        </g>
    </g>
</svg>
