<?xml version="1.0" encoding="UTF-8" standalone="no"?>
<!DOCTYPE svg PUBLIC "-//W3C//DTD SVG 1.1//EN" "http://www.w3.org/Graphics/SVG/1.1/DTD/svg11.dtd">
<svg width="100%" height="100%" viewBox="0 0 2481 3508" version="1.1" xmlns="http://www.w3.org/2000/svg" xmlns:xlink="http://www.w3.org/1999/xlink" xml:space="preserve" xmlns:serif="http://www.serif.com/" style="fill-rule:evenodd;clip-rule:evenodd;stroke-linejoin:round;stroke-miterlimit:2;">
    <g transform="matrix(1,0,0,1,-116.618759,-68.297785)">
        <g transform="matrix(1.17049,0,0,2.087334,-10.042826,-245.720046)">
            <rect x="125.299" y="205.163" width="1022.53" height="139.607" style="fill:rgb(183,47,29);"/>
        </g>
        <g transform="matrix(3.855849,0,0,3.855849,-90.85662,-379.346403)">
            <g transform="matrix(50,0,0,50,287.633232,201.390039)">
            </g>
            <text x="140.392px" y="201.39px" style="font-family:'Arial-BoldMT', 'Arial', sans-serif;font-weight:700;font-size:50px;fill:white;">DSTEI</text>
        </g>
    </g>
    <g transform="matrix(1,0,0,1,-116.618759,257.22167)">
        <g transform="matrix(1.17049,0,0,2.087334,-10.042826,-245.720046)">
            <rect x="125.299" y="205.163" width="1022.53" height="139.607" style="fill:rgb(183,47,29);"/>
        </g>
        <g transform="matrix(3.855849,0,0,3.855849,-90.85662,-379.346403)">
            <g transform="matrix(50,0,0,50,287.633232,201.390039)">
            </g>
            <text x="140.392px" y="201.39px" style="font-family:'Arial-BoldMT', 'Arial', sans-serif;font-weight:700;font-size:50px;fill:white;">DSTEI</text>
        </g>
    </g>
    <g transform="matrix(1,0,0,1,-116.618759,584.672817)">
        <g transform="matrix(1.17049,0,0,2.087334,-10.042826,-245.720046)">
            <rect x="125.299" y="205.163" width="1022.53" height="139.607" style="fill:rgb(183,47,29);"/>
        </g>
        <g transform="matrix(3.855849,0,0,3.855849,-90.85662,-379.346403)">
            <g transform="matrix(50,0,0,50,287.633232,201.390039)">
            </g>
            <text x="140.392px" y="201.39px" style="font-family:'Arial-BoldMT', 'Arial', sans-serif;font-weight:700;font-size:50px;fill:white;">DSTEI</text>
        </g>
    </g>
    <g transform="matrix(1,0,0,1,-116.618759,914.53891)">
        <g transform="matrix(1.17049,0,0,2.087334,-10.042826,-245.720046)">
            <rect x="125.299" y="205.163" width="1022.53" height="139.607" style="fill:rgb(183,47,29);"/>
        </g>
        <g transform="matrix(3.855849,0,0,3.855849,-90.85662,-379.346403)">
            <g transform="matrix(50,0,0,50,287.633232,201.390039)">
            </g>
            <text x="140.392px" y="201.39px" style="font-family:'Arial-BoldMT', 'Arial', sans-serif;font-weight:700;font-size:50px;fill:white;">DSTEI</text>
        </g>
    </g>
    <g transform="matrix(1,0,0,1,-116.618759,1244.404964)">
        <g transform="matrix(1.17049,0,0,2.087334,-10.042826,-245.720046)">
            <rect x="125.299" y="205.163" width="1022.53" height="139.607" style="fill:rgb(183,47,29);"/>
        </g>
        <g transform="matrix(3.855849,0,0,3.855849,-90.85662,-379.346403)">
            <g transform="matrix(50,0,0,50,287.633232,201.390039)">
            </g>
            <text x="140.392px" y="201.39px" style="font-family:'Arial-BoldMT', 'Arial', sans-serif;font-weight:700;font-size:50px;fill:white;">DSTEI</text>
        </g>
    </g>
    <g transform="matrix(1,0,0,1,1126.834076,-68.297785)">
        <g transform="matrix(1.17049,0,0,2.087334,-10.042826,-245.720046)">
            <rect x="125.299" y="205.163" width="1022.53" height="139.607" style="fill:rgb(183,47,29);"/>
        </g>
        <g transform="matrix(3.855849,0,0,3.855849,-90.85662,-379.346403)">
            <g transform="matrix(50,0,0,50,287.633232,201.390039)">
            </g>
            <text x="140.392px" y="201.39px" style="font-family:'Arial-BoldMT', 'Arial', sans-serif;font-weight:700;font-size:50px;fill:white;">DSTEI</text>
        </g>
    </g>
    <g transform="matrix(1,0,0,1,1126.834076,257.22167)">
        <g transform="matrix(1.17049,0,0,2.087334,-10.042826,-245.720046)">
            <rect x="125.299" y="205.163" width="1022.53" height="139.607" style="fill:rgb(183,47,29);"/>
        </g>
        <g transform="matrix(3.855849,0,0,3.855849,-90.85662,-379.346403)">
            <g transform="matrix(50,0,0,50,287.633232,201.390039)">
            </g>
            <text x="140.392px" y="201.39px" style="font-family:'Arial-BoldMT', 'Arial', sans-serif;font-weight:700;font-size:50px;fill:white;">DSTEI</text>
        </g>
    </g>
    <g transform="matrix(1,0,0,1,1126.834076,584.672817)">
        <g transform="matrix(1.17049,0,0,2.087334,-10.042826,-245.720046)">
            <rect x="125.299" y="205.163" width="1022.53" height="139.607" style="fill:rgb(183,47,29);"/>
        </g>
        <g transform="matrix(3.855849,0,0,3.855849,-90.85662,-379.346403)">
            <g transform="matrix(50,0,0,50,287.633232,201.390039)">
            </g>
            <text x="140.392px" y="201.39px" style="font-family:'Arial-BoldMT', 'Arial', sans-serif;font-weight:700;font-size:50px;fill:white;">DSTEI</text>
        </g>
    </g>
    <g transform="matrix(1,0,0,1,1126.834076,914.53891)">
        <g transform="matrix(1.17049,0,0,2.087334,-10.042826,-245.720046)">
            <rect x="125.299" y="205.163" width="1022.53" height="139.607" style="fill:rgb(183,47,29);"/>
        </g>
        <g transform="matrix(3.855849,0,0,3.855849,-90.85662,-379.346403)">
            <g transform="matrix(50,0,0,50,287.633232,201.390039)">
            </g>
            <text x="140.392px" y="201.39px" style="font-family:'Arial-BoldMT', 'Arial', sans-serif;font-weight:700;font-size:50px;fill:white;">DSTEI</text>
        </g>
    </g>
    <g transform="matrix(1,0,0,1,1126.834076,1244.404964)">
        <g transform="matrix(1.17049,0,0,2.087334,-10.042826,-245.720046)">
            <rect x="125.299" y="205.163" width="1022.53" height="139.607" style="fill:rgb(183,47,29);"/>
        </g>
        <g transform="matrix(3.855849,0,0,3.855849,-90.85662,-379.346403)">
            <g transform="matrix(50,0,0,50,287.633232,201.390039)">
            </g>
            <text x="140.392px" y="201.39px" style="font-family:'Arial-BoldMT', 'Arial', sans-serif;font-weight:700;font-size:50px;fill:white;">DSTEI</text>
        </g>
    </g>
    <g transform="matrix(1,0,0,1,-116.618759,1607.01324)">
        <g transform="matrix(1.17049,0,0,2.087334,-10.042826,-245.720046)">
            <rect x="125.299" y="205.163" width="1022.53" height="139.607" style="fill:rgb(183,47,29);"/>
        </g>
        <g transform="matrix(3.855849,0,0,3.855849,-90.85662,-379.346403)">
            <g transform="matrix(50,0,0,50,287.633232,201.390039)">
            </g>
            <text x="140.392px" y="201.39px" style="font-family:'Arial-BoldMT', 'Arial', sans-serif;font-weight:700;font-size:50px;fill:white;">DSTEI</text>
        </g>
    </g>
    <g transform="matrix(1,0,0,1,-116.618759,1932.532694)">
        <g transform="matrix(1.17049,0,0,2.087334,-10.042826,-245.720046)">
            <rect x="125.299" y="205.163" width="1022.53" height="139.607" style="fill:rgb(183,47,29);"/>
        </g>
        <g transform="matrix(3.855849,0,0,3.855849,-90.85662,-379.346403)">
            <g transform="matrix(50,0,0,50,287.633232,201.390039)">
            </g>
            <text x="140.392px" y="201.39px" style="font-family:'Arial-BoldMT', 'Arial', sans-serif;font-weight:700;font-size:50px;fill:white;">DSTEI</text>
        </g>
    </g>
    <g transform="matrix(1,0,0,1,-116.618759,2259.983841)">
        <g transform="matrix(1.17049,0,0,2.087334,-10.042826,-245.720046)">
            <rect x="125.299" y="205.163" width="1022.53" height="139.607" style="fill:rgb(183,47,29);"/>
        </g>
        <g transform="matrix(3.855849,0,0,3.855849,-90.85662,-379.346403)">
            <g transform="matrix(50,0,0,50,287.633232,201.390039)">
            </g>
            <text x="140.392px" y="201.39px" style="font-family:'Arial-BoldMT', 'Arial', sans-serif;font-weight:700;font-size:50px;fill:white;">DSTEI</text>
        </g>
    </g>
    <g transform="matrix(1,0,0,1,-116.618759,2589.849935)">
        <g transform="matrix(1.17049,0,0,2.087334,-10.042826,-245.720046)">
            <rect x="125.299" y="205.163" width="1022.53" height="139.607" style="fill:rgb(183,47,29);"/>
        </g>
        <g transform="matrix(3.855849,0,0,3.855849,-90.85662,-379.346403)">
            <g transform="matrix(50,0,0,50,287.633232,201.390039)">
            </g>
            <text x="140.392px" y="201.39px" style="font-family:'Arial-BoldMT', 'Arial', sans-serif;font-weight:700;font-size:50px;fill:white;">DSTEI</text>
        </g>
    </g>
    <g transform="matrix(1,0,0,1,-116.618759,2919.715988)">
        <g transform="matrix(1.17049,0,0,2.087334,-10.042826,-245.720046)">
            <rect x="125.299" y="205.163" width="1022.53" height="139.607" style="fill:rgb(183,47,29);"/>
        </g>
        <g transform="matrix(3.855849,0,0,3.855849,-90.85662,-379.346403)">
            <g transform="matrix(50,0,0,50,287.633232,201.390039)">
            </g>
            <text x="140.392px" y="201.39px" style="font-family:'Arial-BoldMT', 'Arial', sans-serif;font-weight:700;font-size:50px;fill:white;">DSTEI</text>
        </g>
    </g>
    <g transform="matrix(1,0,0,1,1126.834076,1607.01324)">
        <g transform="matrix(1.17049,0,0,2.087334,-10.042826,-245.720046)">
            <rect x="125.299" y="205.163" width="1022.53" height="139.607" style="fill:rgb(183,47,29);"/>
        </g>
        <g transform="matrix(3.855849,0,0,3.855849,-90.85662,-379.346403)">
            <g transform="matrix(50,0,0,50,287.633232,201.390039)">
            </g>
            <text x="140.392px" y="201.39px" style="font-family:'Arial-BoldMT', 'Arial', sans-serif;font-weight:700;font-size:50px;fill:white;">DSTEI</text>
        </g>
    </g>
    <g transform="matrix(1,0,0,1,1126.834076,1932.532694)">
        <g transform="matrix(1.17049,0,0,2.087334,-10.042826,-245.720046)">
            <rect x="125.299" y="205.163" width="1022.53" height="139.607" style="fill:rgb(183,47,29);"/>
        </g>
        <g transform="matrix(3.855849,0,0,3.855849,-90.85662,-379.346403)">
            <g transform="matrix(50,0,0,50,287.633232,201.390039)">
            </g>
            <text x="140.392px" y="201.39px" style="font-family:'Arial-BoldMT', 'Arial', sans-serif;font-weight:700;font-size:50px;fill:white;">DSTEI</text>
        </g>
    </g>
    <g transform="matrix(1,0,0,1,1126.834076,2259.983841)">
        <g transform="matrix(1.17049,0,0,2.087334,-10.042826,-245.720046)">
            <rect x="125.299" y="205.163" width="1022.53" height="139.607" style="fill:rgb(183,47,29);"/>
        </g>
        <g transform="matrix(3.855849,0,0,3.855849,-90.85662,-379.346403)">
            <g transform="matrix(50,0,0,50,287.633232,201.390039)">
            </g>
            <text x="140.392px" y="201.39px" style="font-family:'Arial-BoldMT', 'Arial', sans-serif;font-weight:700;font-size:50px;fill:white;">DSTEI</text>
        </g>
    </g>
    <g transform="matrix(1,0,0,1,1126.834076,2589.849935)">
        <g transform="matrix(1.17049,0,0,2.087334,-10.042826,-245.720046)">
            <rect x="125.299" y="205.163" width="1022.53" height="139.607" style="fill:rgb(183,47,29);"/>
        </g>
        <g transform="matrix(3.855849,0,0,3.855849,-90.85662,-379.346403)">
            <g transform="matrix(50,0,0,50,287.633232,201.390039)">
            </g>
            <text x="140.392px" y="201.39px" style="font-family:'Arial-BoldMT', 'Arial', sans-serif;font-weight:700;font-size:50px;fill:white;">DSTEI</text>
        </g>
    </g>
    <g transform="matrix(1,0,0,1,1126.834076,2919.715988)">
        <g transform="matrix(1.17049,0,0,2.087334,-10.042826,-245.720046)">
            <rect x="125.299" y="205.163" width="1022.53" height="139.607" style="fill:rgb(183,47,29);"/>
        </g>
        <g transform="matrix(3.855849,0,0,3.855849,-90.85662,-379.346403)">
            <g transform="matrix(50,0,0,50,287.633232,201.390039)">
            </g>
            <text x="140.392px" y="201.39px" style="font-family:'Arial-BoldMT', 'Arial', sans-serif;font-weight:700;font-size:50px;fill:white;">DSTEI</text>
        </g>
    </g>
</svg>
