<?xml version="1.0" encoding="UTF-8" standalone="no"?>
<!DOCTYPE svg PUBLIC "-//W3C//DTD SVG 1.1//EN" "http://www.w3.org/Graphics/SVG/1.1/DTD/svg11.dtd">
<svg width="100%" height="100%" viewBox="0 0 2481 3508" version="1.1" xmlns="http://www.w3.org/2000/svg" xmlns:xlink="http://www.w3.org/1999/xlink" xml:space="preserve" xmlns:serif="http://www.serif.com/" style="fill-rule:evenodd;clip-rule:evenodd;stroke-linejoin:round;stroke-miterlimit:2;">
    <g transform="matrix(1,0,0,1,18.828863,9.055622)">
        <g transform="matrix(1,0,0,0.668471,-15.340673,-6.168465)">
            <rect x="36" y="51" width="1189" height="277" style="fill:rgb(0,137,183);"/>
        </g>
        <g transform="matrix(0.678266,0,0,0.678266,98.432926,-149.41777)">
            <g transform="matrix(166.666667,0,0,166.666667,1397.576823,452.650391)">
            </g>
            <text x="123px" y="452.65px" style="font-family:'Arial-BoldMT', 'Arial', sans-serif;font-weight:700;font-size:166.667px;fill:white;">INFORMA<tspan x="888.299px 990.106px " y="452.65px 452.65px ">TI</tspan>QUE</text>
        </g>
        <g transform="matrix(1,0,0,0.668471,-15.340673,-6.168465)">
            <rect x="36" y="51" width="1189" height="277" style="fill:rgb(0,137,183);"/>
        </g>
        <g transform="matrix(0.678266,0,0,0.678266,98.432926,-149.41777)">
            <g transform="matrix(166.666667,0,0,166.666667,1397.576823,452.650391)">
            </g>
            <text x="123px" y="452.65px" style="font-family:'Arial-BoldMT', 'Arial', sans-serif;font-weight:700;font-size:166.667px;fill:white;">INFORMA<tspan x="888.299px 990.106px " y="452.65px 452.65px ">TI</tspan>QUE</text>
        </g>
    </g>
    <g transform="matrix(1,0,0,1,1231.167442,9.055622)">
        <g transform="matrix(1,0,0,0.668471,-15.340673,-6.168465)">
            <rect x="36" y="51" width="1189" height="277" style="fill:rgb(0,137,183);"/>
        </g>
        <g transform="matrix(0.678266,0,0,0.678266,98.432926,-149.41777)">
            <g transform="matrix(166.666667,0,0,166.666667,1397.576823,452.650391)">
            </g>
            <text x="123px" y="452.65px" style="font-family:'Arial-BoldMT', 'Arial', sans-serif;font-weight:700;font-size:166.667px;fill:white;">INFORMA<tspan x="888.299px 990.106px " y="452.65px 452.65px ">TI</tspan>QUE</text>
        </g>
        <g transform="matrix(1,0,0,0.668471,-15.340673,-6.168465)">
            <rect x="36" y="51" width="1189" height="277" style="fill:rgb(0,137,183);"/>
        </g>
        <g transform="matrix(0.678266,0,0,0.678266,98.432926,-149.41777)">
            <g transform="matrix(166.666667,0,0,166.666667,1397.576823,452.650391)">
            </g>
            <text x="123px" y="452.65px" style="font-family:'Arial-BoldMT', 'Arial', sans-serif;font-weight:700;font-size:166.667px;fill:white;">INFORMA<tspan x="888.299px 990.106px " y="452.65px 452.65px ">TI</tspan>QUE</text>
        </g>
    </g>
    <g transform="matrix(1,0,0,1,18.828863,226.390432)">
        <g transform="matrix(1,0,0,0.668471,-15.340673,-6.168465)">
            <rect x="36" y="51" width="1189" height="277" style="fill:rgb(0,137,183);"/>
        </g>
        <g transform="matrix(0.678266,0,0,0.678266,98.432926,-149.41777)">
            <g transform="matrix(166.666667,0,0,166.666667,1397.576823,452.650391)">
            </g>
            <text x="123px" y="452.65px" style="font-family:'Arial-BoldMT', 'Arial', sans-serif;font-weight:700;font-size:166.667px;fill:white;">INFORMA<tspan x="888.299px 990.106px " y="452.65px 452.65px ">TI</tspan>QUE</text>
        </g>
        <g transform="matrix(1,0,0,0.668471,-15.340673,-6.168465)">
            <rect x="36" y="51" width="1189" height="277" style="fill:rgb(0,137,183);"/>
        </g>
        <g transform="matrix(0.678266,0,0,0.678266,98.432926,-149.41777)">
            <g transform="matrix(166.666667,0,0,166.666667,1397.576823,452.650391)">
            </g>
            <text x="123px" y="452.65px" style="font-family:'Arial-BoldMT', 'Arial', sans-serif;font-weight:700;font-size:166.667px;fill:white;">INFORMA<tspan x="888.299px 990.106px " y="452.65px 452.65px ">TI</tspan>QUE</text>
        </g>
    </g>
    <g transform="matrix(1,0,0,1,1231.167442,226.390432)">
        <g transform="matrix(1,0,0,0.668471,-15.340673,-6.168465)">
            <rect x="36" y="51" width="1189" height="277" style="fill:rgb(0,137,183);"/>
        </g>
        <g transform="matrix(0.678266,0,0,0.678266,98.432926,-149.41777)">
            <g transform="matrix(166.666667,0,0,166.666667,1397.576823,452.650391)">
            </g>
            <text x="123px" y="452.65px" style="font-family:'Arial-BoldMT', 'Arial', sans-serif;font-weight:700;font-size:166.667px;fill:white;">INFORMA<tspan x="888.299px 990.106px " y="452.65px 452.65px ">TI</tspan>QUE</text>
        </g>
        <g transform="matrix(1,0,0,0.668471,-15.340673,-6.168465)">
            <rect x="36" y="51" width="1189" height="277" style="fill:rgb(0,137,183);"/>
        </g>
        <g transform="matrix(0.678266,0,0,0.678266,98.432926,-149.41777)">
            <g transform="matrix(166.666667,0,0,166.666667,1397.576823,452.650391)">
            </g>
            <text x="123px" y="452.65px" style="font-family:'Arial-BoldMT', 'Arial', sans-serif;font-weight:700;font-size:166.667px;fill:white;">INFORMA<tspan x="888.299px 990.106px " y="452.65px 452.65px ">TI</tspan>QUE</text>
        </g>
    </g>
    <g transform="matrix(1,0,0,1,18.828863,443.725185)">
        <g transform="matrix(1,0,0,0.668471,-15.340673,-6.168465)">
            <rect x="36" y="51" width="1189" height="277" style="fill:rgb(0,137,183);"/>
        </g>
        <g transform="matrix(0.678266,0,0,0.678266,98.432926,-149.41777)">
            <g transform="matrix(166.666667,0,0,166.666667,1397.576823,452.650391)">
            </g>
            <text x="123px" y="452.65px" style="font-family:'Arial-BoldMT', 'Arial', sans-serif;font-weight:700;font-size:166.667px;fill:white;">INFORMA<tspan x="888.299px 990.106px " y="452.65px 452.65px ">TI</tspan>QUE</text>
        </g>
        <g transform="matrix(1,0,0,0.668471,-15.340673,-6.168465)">
            <rect x="36" y="51" width="1189" height="277" style="fill:rgb(0,137,183);"/>
        </g>
        <g transform="matrix(0.678266,0,0,0.678266,98.432926,-149.41777)">
            <g transform="matrix(166.666667,0,0,166.666667,1397.576823,452.650391)">
            </g>
            <text x="123px" y="452.65px" style="font-family:'Arial-BoldMT', 'Arial', sans-serif;font-weight:700;font-size:166.667px;fill:white;">INFORMA<tspan x="888.299px 990.106px " y="452.65px 452.65px ">TI</tspan>QUE</text>
        </g>
    </g>
    <g transform="matrix(1,0,0,1,1231.167442,443.725185)">
        <g transform="matrix(1,0,0,0.668471,-15.340673,-6.168465)">
            <rect x="36" y="51" width="1189" height="277" style="fill:rgb(0,137,183);"/>
        </g>
        <g transform="matrix(0.678266,0,0,0.678266,98.432926,-149.41777)">
            <g transform="matrix(166.666667,0,0,166.666667,1397.576823,452.650391)">
            </g>
            <text x="123px" y="452.65px" style="font-family:'Arial-BoldMT', 'Arial', sans-serif;font-weight:700;font-size:166.667px;fill:white;">INFORMA<tspan x="888.299px 990.106px " y="452.65px 452.65px ">TI</tspan>QUE</text>
        </g>
        <g transform="matrix(1,0,0,0.668471,-15.340673,-6.168465)">
            <rect x="36" y="51" width="1189" height="277" style="fill:rgb(0,137,183);"/>
        </g>
        <g transform="matrix(0.678266,0,0,0.678266,98.432926,-149.41777)">
            <g transform="matrix(166.666667,0,0,166.666667,1397.576823,452.650391)">
            </g>
            <text x="123px" y="452.65px" style="font-family:'Arial-BoldMT', 'Arial', sans-serif;font-weight:700;font-size:166.667px;fill:white;">INFORMA<tspan x="888.299px 990.106px " y="452.65px 452.65px ">TI</tspan>QUE</text>
        </g>
    </g>
    <g transform="matrix(1,0,0,1,18.828863,661.059995)">
        <g transform="matrix(1,0,0,0.668471,-15.340673,-6.168465)">
            <rect x="36" y="51" width="1189" height="277" style="fill:rgb(0,137,183);"/>
        </g>
        <g transform="matrix(0.678266,0,0,0.678266,98.432926,-149.41777)">
            <g transform="matrix(166.666667,0,0,166.666667,1397.576823,452.650391)">
            </g>
            <text x="123px" y="452.65px" style="font-family:'Arial-BoldMT', 'Arial', sans-serif;font-weight:700;font-size:166.667px;fill:white;">INFORMA<tspan x="888.299px 990.106px " y="452.65px 452.65px ">TI</tspan>QUE</text>
        </g>
        <g transform="matrix(1,0,0,0.668471,-15.340673,-6.168465)">
            <rect x="36" y="51" width="1189" height="277" style="fill:rgb(0,137,183);"/>
        </g>
        <g transform="matrix(0.678266,0,0,0.678266,98.432926,-149.41777)">
            <g transform="matrix(166.666667,0,0,166.666667,1397.576823,452.650391)">
            </g>
            <text x="123px" y="452.65px" style="font-family:'Arial-BoldMT', 'Arial', sans-serif;font-weight:700;font-size:166.667px;fill:white;">INFORMA<tspan x="888.299px 990.106px " y="452.65px 452.65px ">TI</tspan>QUE</text>
        </g>
    </g>
    <g transform="matrix(1,0,0,1,1231.167442,661.059995)">
        <g transform="matrix(1,0,0,0.668471,-15.340673,-6.168465)">
            <rect x="36" y="51" width="1189" height="277" style="fill:rgb(0,137,183);"/>
        </g>
        <g transform="matrix(0.678266,0,0,0.678266,98.432926,-149.41777)">
            <g transform="matrix(166.666667,0,0,166.666667,1397.576823,452.650391)">
            </g>
            <text x="123px" y="452.65px" style="font-family:'Arial-BoldMT', 'Arial', sans-serif;font-weight:700;font-size:166.667px;fill:white;">INFORMA<tspan x="888.299px 990.106px " y="452.65px 452.65px ">TI</tspan>QUE</text>
        </g>
        <g transform="matrix(1,0,0,0.668471,-15.340673,-6.168465)">
            <rect x="36" y="51" width="1189" height="277" style="fill:rgb(0,137,183);"/>
        </g>
        <g transform="matrix(0.678266,0,0,0.678266,98.432926,-149.41777)">
            <g transform="matrix(166.666667,0,0,166.666667,1397.576823,452.650391)">
            </g>
            <text x="123px" y="452.65px" style="font-family:'Arial-BoldMT', 'Arial', sans-serif;font-weight:700;font-size:166.667px;fill:white;">INFORMA<tspan x="888.299px 990.106px " y="452.65px 452.65px ">TI</tspan>QUE</text>
        </g>
    </g>
    <g transform="matrix(1,0,0,1,-11.669289,879.78699)">
        <g transform="matrix(1,0,0,1,30.498153,9.055622)">
            <g transform="matrix(1,0,0,0.668471,-15.340673,-6.168465)">
                <rect x="36" y="51" width="1189" height="277" style="fill:rgb(0,137,183);"/>
            </g>
            <g transform="matrix(0.678266,0,0,0.678266,98.432926,-149.41777)">
                <g>
                    <g transform="matrix(1,0,0,1,123,452.65)">
                        <text x="0px" y="0px" style="font-family:'Arial-BoldMT', 'Arial', sans-serif;font-weight:700;font-size:166.667px;fill:white;">INFORMA</text>
                    </g>
                    <g transform="matrix(1,0,0,1,888.299,452.65)">
                        <text x="0px" y="0px" style="font-family:'Arial-BoldMT', 'Arial', sans-serif;font-weight:700;font-size:166.667px;fill:white;">TIQUE</text>
                    </g>
                </g>
            </g>
            <g transform="matrix(1,0,0,0.668471,-15.340673,-6.168465)">
                <rect x="36" y="51" width="1189" height="277" style="fill:rgb(0,137,183);"/>
            </g>
            <g transform="matrix(0.678266,0,0,0.678266,98.432926,-149.41777)">
                <g>
                    <g transform="matrix(1,0,0,1,123,452.65)">
                        <text x="0px" y="0px" style="font-family:'Arial-BoldMT', 'Arial', sans-serif;font-weight:700;font-size:166.667px;fill:white;">INFORMA</text>
                    </g>
                    <g transform="matrix(1,0,0,1,888.299,452.65)">
                        <text x="0px" y="0px" style="font-family:'Arial-BoldMT', 'Arial', sans-serif;font-weight:700;font-size:166.667px;fill:white;">TIQUE</text>
                    </g>
                </g>
            </g>
        </g>
        <g transform="matrix(1,0,0,1,1242.836732,9.055622)">
            <g transform="matrix(1,0,0,0.668471,-15.340673,-6.168465)">
                <rect x="36" y="51" width="1189" height="277" style="fill:rgb(0,137,183);"/>
            </g>
            <g transform="matrix(0.678266,0,0,0.678266,98.432926,-149.41777)">
                <g>
                    <g transform="matrix(1,0,0,1,123,452.65)">
                        <text x="0px" y="0px" style="font-family:'Arial-BoldMT', 'Arial', sans-serif;font-weight:700;font-size:166.667px;fill:white;">INFORMA</text>
                    </g>
                    <g transform="matrix(1,0,0,1,888.299,452.65)">
                        <text x="0px" y="0px" style="font-family:'Arial-BoldMT', 'Arial', sans-serif;font-weight:700;font-size:166.667px;fill:white;">TIQUE</text>
                    </g>
                </g>
            </g>
            <g transform="matrix(1,0,0,0.668471,-15.340673,-6.168465)">
                <rect x="36" y="51" width="1189" height="277" style="fill:rgb(0,137,183);"/>
            </g>
            <g transform="matrix(0.678266,0,0,0.678266,98.432926,-149.41777)">
                <g>
                    <g transform="matrix(1,0,0,1,123,452.65)">
                        <text x="0px" y="0px" style="font-family:'Arial-BoldMT', 'Arial', sans-serif;font-weight:700;font-size:166.667px;fill:white;">INFORMA</text>
                    </g>
                    <g transform="matrix(1,0,0,1,888.299,452.65)">
                        <text x="0px" y="0px" style="font-family:'Arial-BoldMT', 'Arial', sans-serif;font-weight:700;font-size:166.667px;fill:white;">TIQUE</text>
                    </g>
                </g>
            </g>
        </g>
        <g transform="matrix(1,0,0,1,30.498153,226.390432)">
            <g transform="matrix(1,0,0,0.668471,-15.340673,-6.168465)">
                <rect x="36" y="51" width="1189" height="277" style="fill:rgb(0,137,183);"/>
            </g>
            <g transform="matrix(0.678266,0,0,0.678266,98.432926,-149.41777)">
                <g>
                    <g transform="matrix(1,0,0,1,123,452.65)">
                        <text x="0px" y="0px" style="font-family:'Arial-BoldMT', 'Arial', sans-serif;font-weight:700;font-size:166.667px;fill:white;">INFORMA</text>
                    </g>
                    <g transform="matrix(1,0,0,1,888.299,452.65)">
                        <text x="0px" y="0px" style="font-family:'Arial-BoldMT', 'Arial', sans-serif;font-weight:700;font-size:166.667px;fill:white;">TIQUE</text>
                    </g>
                </g>
            </g>
            <g transform="matrix(1,0,0,0.668471,-15.340673,-6.168465)">
                <rect x="36" y="51" width="1189" height="277" style="fill:rgb(0,137,183);"/>
            </g>
            <g transform="matrix(0.678266,0,0,0.678266,98.432926,-149.41777)">
                <g>
                    <g transform="matrix(1,0,0,1,123,452.65)">
                        <text x="0px" y="0px" style="font-family:'Arial-BoldMT', 'Arial', sans-serif;font-weight:700;font-size:166.667px;fill:white;">INFORMA</text>
                    </g>
                    <g transform="matrix(1,0,0,1,888.299,452.65)">
                        <text x="0px" y="0px" style="font-family:'Arial-BoldMT', 'Arial', sans-serif;font-weight:700;font-size:166.667px;fill:white;">TIQUE</text>
                    </g>
                </g>
            </g>
        </g>
        <g transform="matrix(1,0,0,1,1242.836732,226.390432)">
            <g transform="matrix(1,0,0,0.668471,-15.340673,-6.168465)">
                <rect x="36" y="51" width="1189" height="277" style="fill:rgb(0,137,183);"/>
            </g>
            <g transform="matrix(0.678266,0,0,0.678266,98.432926,-149.41777)">
                <g>
                    <g transform="matrix(1,0,0,1,123,452.65)">
                        <text x="0px" y="0px" style="font-family:'Arial-BoldMT', 'Arial', sans-serif;font-weight:700;font-size:166.667px;fill:white;">INFORMA</text>
                    </g>
                    <g transform="matrix(1,0,0,1,888.299,452.65)">
                        <text x="0px" y="0px" style="font-family:'Arial-BoldMT', 'Arial', sans-serif;font-weight:700;font-size:166.667px;fill:white;">TIQUE</text>
                    </g>
                </g>
            </g>
            <g transform="matrix(1,0,0,0.668471,-15.340673,-6.168465)">
                <rect x="36" y="51" width="1189" height="277" style="fill:rgb(0,137,183);"/>
            </g>
            <g transform="matrix(0.678266,0,0,0.678266,98.432926,-149.41777)">
                <g>
                    <g transform="matrix(1,0,0,1,123,452.65)">
                        <text x="0px" y="0px" style="font-family:'Arial-BoldMT', 'Arial', sans-serif;font-weight:700;font-size:166.667px;fill:white;">INFORMA</text>
                    </g>
                    <g transform="matrix(1,0,0,1,888.299,452.65)">
                        <text x="0px" y="0px" style="font-family:'Arial-BoldMT', 'Arial', sans-serif;font-weight:700;font-size:166.667px;fill:white;">TIQUE</text>
                    </g>
                </g>
            </g>
        </g>
        <g transform="matrix(1,0,0,1,30.498153,443.725185)">
            <g transform="matrix(1,0,0,0.668471,-15.340673,-6.168465)">
                <rect x="36" y="51" width="1189" height="277" style="fill:rgb(0,137,183);"/>
            </g>
            <g transform="matrix(0.678266,0,0,0.678266,98.432926,-149.41777)">
                <g>
                    <g transform="matrix(1,0,0,1,123,452.65)">
                        <text x="0px" y="0px" style="font-family:'Arial-BoldMT', 'Arial', sans-serif;font-weight:700;font-size:166.667px;fill:white;">INFORMA</text>
                    </g>
                    <g transform="matrix(1,0,0,1,888.299,452.65)">
                        <text x="0px" y="0px" style="font-family:'Arial-BoldMT', 'Arial', sans-serif;font-weight:700;font-size:166.667px;fill:white;">TIQUE</text>
                    </g>
                </g>
            </g>
            <g transform="matrix(1,0,0,0.668471,-15.340673,-6.168465)">
                <rect x="36" y="51" width="1189" height="277" style="fill:rgb(0,137,183);"/>
            </g>
            <g transform="matrix(0.678266,0,0,0.678266,98.432926,-149.41777)">
                <g>
                    <g transform="matrix(1,0,0,1,123,452.65)">
                        <text x="0px" y="0px" style="font-family:'Arial-BoldMT', 'Arial', sans-serif;font-weight:700;font-size:166.667px;fill:white;">INFORMA</text>
                    </g>
                    <g transform="matrix(1,0,0,1,888.299,452.65)">
                        <text x="0px" y="0px" style="font-family:'Arial-BoldMT', 'Arial', sans-serif;font-weight:700;font-size:166.667px;fill:white;">TIQUE</text>
                    </g>
                </g>
            </g>
        </g>
        <g transform="matrix(1,0,0,1,1242.836732,443.725185)">
            <g transform="matrix(1,0,0,0.668471,-15.340673,-6.168465)">
                <rect x="36" y="51" width="1189" height="277" style="fill:rgb(0,137,183);"/>
            </g>
            <g transform="matrix(0.678266,0,0,0.678266,98.432926,-149.41777)">
                <g>
                    <g transform="matrix(1,0,0,1,123,452.65)">
                        <text x="0px" y="0px" style="font-family:'Arial-BoldMT', 'Arial', sans-serif;font-weight:700;font-size:166.667px;fill:white;">INFORMA</text>
                    </g>
                    <g transform="matrix(1,0,0,1,888.299,452.65)">
                        <text x="0px" y="0px" style="font-family:'Arial-BoldMT', 'Arial', sans-serif;font-weight:700;font-size:166.667px;fill:white;">TIQUE</text>
                    </g>
                </g>
            </g>
            <g transform="matrix(1,0,0,0.668471,-15.340673,-6.168465)">
                <rect x="36" y="51" width="1189" height="277" style="fill:rgb(0,137,183);"/>
            </g>
            <g transform="matrix(0.678266,0,0,0.678266,98.432926,-149.41777)">
                <g>
                    <g transform="matrix(1,0,0,1,123,452.65)">
                        <text x="0px" y="0px" style="font-family:'Arial-BoldMT', 'Arial', sans-serif;font-weight:700;font-size:166.667px;fill:white;">INFORMA</text>
                    </g>
                    <g transform="matrix(1,0,0,1,888.299,452.65)">
                        <text x="0px" y="0px" style="font-family:'Arial-BoldMT', 'Arial', sans-serif;font-weight:700;font-size:166.667px;fill:white;">TIQUE</text>
                    </g>
                </g>
            </g>
        </g>
        <g transform="matrix(1,0,0,1,30.498153,661.059995)">
            <g transform="matrix(1,0,0,0.668471,-15.340673,-6.168465)">
                <rect x="36" y="51" width="1189" height="277" style="fill:rgb(0,137,183);"/>
            </g>
            <g transform="matrix(0.678266,0,0,0.678266,98.432926,-149.41777)">
                <g>
                    <g transform="matrix(1,0,0,1,123,452.65)">
                        <text x="0px" y="0px" style="font-family:'Arial-BoldMT', 'Arial', sans-serif;font-weight:700;font-size:166.667px;fill:white;">INFORMA</text>
                    </g>
                    <g transform="matrix(1,0,0,1,888.299,452.65)">
                        <text x="0px" y="0px" style="font-family:'Arial-BoldMT', 'Arial', sans-serif;font-weight:700;font-size:166.667px;fill:white;">TIQUE</text>
                    </g>
                </g>
            </g>
            <g transform="matrix(1,0,0,0.668471,-15.340673,-6.168465)">
                <rect x="36" y="51" width="1189" height="277" style="fill:rgb(0,137,183);"/>
            </g>
            <g transform="matrix(0.678266,0,0,0.678266,98.432926,-149.41777)">
                <g>
                    <g transform="matrix(1,0,0,1,123,452.65)">
                        <text x="0px" y="0px" style="font-family:'Arial-BoldMT', 'Arial', sans-serif;font-weight:700;font-size:166.667px;fill:white;">INFORMA</text>
                    </g>
                    <g transform="matrix(1,0,0,1,888.299,452.65)">
                        <text x="0px" y="0px" style="font-family:'Arial-BoldMT', 'Arial', sans-serif;font-weight:700;font-size:166.667px;fill:white;">TIQUE</text>
                    </g>
                </g>
            </g>
        </g>
        <g transform="matrix(1,0,0,1,1242.836732,661.059995)">
            <g transform="matrix(1,0,0,0.668471,-15.340673,-6.168465)">
                <rect x="36" y="51" width="1189" height="277" style="fill:rgb(0,137,183);"/>
            </g>
            <g transform="matrix(0.678266,0,0,0.678266,98.432926,-149.41777)">
                <g>
                    <g transform="matrix(1,0,0,1,123,452.65)">
                        <text x="0px" y="0px" style="font-family:'Arial-BoldMT', 'Arial', sans-serif;font-weight:700;font-size:166.667px;fill:white;">INFORMA</text>
                    </g>
                    <g transform="matrix(1,0,0,1,888.299,452.65)">
                        <text x="0px" y="0px" style="font-family:'Arial-BoldMT', 'Arial', sans-serif;font-weight:700;font-size:166.667px;fill:white;">TIQUE</text>
                    </g>
                </g>
            </g>
            <g transform="matrix(1,0,0,0.668471,-15.340673,-6.168465)">
                <rect x="36" y="51" width="1189" height="277" style="fill:rgb(0,137,183);"/>
            </g>
            <g transform="matrix(0.678266,0,0,0.678266,98.432926,-149.41777)">
                <g>
                    <g transform="matrix(1,0,0,1,123,452.65)">
                        <text x="0px" y="0px" style="font-family:'Arial-BoldMT', 'Arial', sans-serif;font-weight:700;font-size:166.667px;fill:white;">INFORMA</text>
                    </g>
                    <g transform="matrix(1,0,0,1,888.299,452.65)">
                        <text x="0px" y="0px" style="font-family:'Arial-BoldMT', 'Arial', sans-serif;font-weight:700;font-size:166.667px;fill:white;">TIQUE</text>
                    </g>
                </g>
            </g>
        </g>
        <g transform="matrix(1,0,0,1,30.498152,876.851522)">
            <g transform="matrix(1,0,0,0.668471,-15.340673,-6.168465)">
                <rect x="36" y="51" width="1189" height="277" style="fill:rgb(0,137,183);"/>
            </g>
            <g transform="matrix(0.678266,0,0,0.678266,98.432926,-149.41777)">
                <g transform="matrix(166.666667,0,0,166.666667,1397.576823,452.650391)">
                </g>
                <text x="123px" y="452.65px" style="font-family:'Arial-BoldMT', 'Arial', sans-serif;font-weight:700;font-size:166.667px;fill:white;">INFORMA<tspan x="888.299px 990.106px " y="452.65px 452.65px ">TI</tspan>QUE</text>
            </g>
            <g transform="matrix(1,0,0,0.668471,-15.340673,-6.168465)">
                <rect x="36" y="51" width="1189" height="277" style="fill:rgb(0,137,183);"/>
            </g>
            <g transform="matrix(0.678266,0,0,0.678266,98.432926,-149.41777)">
                <g transform="matrix(166.666667,0,0,166.666667,1397.576823,452.650391)">
                </g>
                <text x="123px" y="452.65px" style="font-family:'Arial-BoldMT', 'Arial', sans-serif;font-weight:700;font-size:166.667px;fill:white;">INFORMA<tspan x="888.299px 990.106px " y="452.65px 452.65px ">TI</tspan>QUE</text>
            </g>
        </g>
        <g transform="matrix(1,0,0,1,1242.836731,876.851522)">
            <g transform="matrix(1,0,0,0.668471,-15.340673,-6.168465)">
                <rect x="36" y="51" width="1189" height="277" style="fill:rgb(0,137,183);"/>
            </g>
            <g transform="matrix(0.678266,0,0,0.678266,98.432926,-149.41777)">
                <g transform="matrix(166.666667,0,0,166.666667,1397.576823,452.650391)">
                </g>
                <text x="123px" y="452.65px" style="font-family:'Arial-BoldMT', 'Arial', sans-serif;font-weight:700;font-size:166.667px;fill:white;">INFORMA<tspan x="888.299px 990.106px " y="452.65px 452.65px ">TI</tspan>QUE</text>
            </g>
            <g transform="matrix(1,0,0,0.668471,-15.340673,-6.168465)">
                <rect x="36" y="51" width="1189" height="277" style="fill:rgb(0,137,183);"/>
            </g>
            <g transform="matrix(0.678266,0,0,0.678266,98.432926,-149.41777)">
                <g transform="matrix(166.666667,0,0,166.666667,1397.576823,452.650391)">
                </g>
                <text x="123px" y="452.65px" style="font-family:'Arial-BoldMT', 'Arial', sans-serif;font-weight:700;font-size:166.667px;fill:white;">INFORMA<tspan x="888.299px 990.106px " y="452.65px 452.65px ">TI</tspan>QUE</text>
            </g>
        </g>
        <g transform="matrix(1,0,0,1,30.498152,1094.186332)">
            <g transform="matrix(1,0,0,0.668471,-15.340673,-6.168465)">
                <rect x="36" y="51" width="1189" height="277" style="fill:rgb(0,137,183);"/>
            </g>
            <g transform="matrix(0.678266,0,0,0.678266,98.432926,-149.41777)">
                <g transform="matrix(166.666667,0,0,166.666667,1397.576823,452.650391)">
                </g>
                <text x="123px" y="452.65px" style="font-family:'Arial-BoldMT', 'Arial', sans-serif;font-weight:700;font-size:166.667px;fill:white;">INFORMA<tspan x="888.299px 990.106px " y="452.65px 452.65px ">TI</tspan>QUE</text>
            </g>
            <g transform="matrix(1,0,0,0.668471,-15.340673,-6.168465)">
                <rect x="36" y="51" width="1189" height="277" style="fill:rgb(0,137,183);"/>
            </g>
            <g transform="matrix(0.678266,0,0,0.678266,98.432926,-149.41777)">
                <g transform="matrix(166.666667,0,0,166.666667,1397.576823,452.650391)">
                </g>
                <text x="123px" y="452.65px" style="font-family:'Arial-BoldMT', 'Arial', sans-serif;font-weight:700;font-size:166.667px;fill:white;">INFORMA<tspan x="888.299px 990.106px " y="452.65px 452.65px ">TI</tspan>QUE</text>
            </g>
        </g>
        <g transform="matrix(1,0,0,1,1242.836731,1094.186332)">
            <g transform="matrix(1,0,0,0.668471,-15.340673,-6.168465)">
                <rect x="36" y="51" width="1189" height="277" style="fill:rgb(0,137,183);"/>
            </g>
            <g transform="matrix(0.678266,0,0,0.678266,98.432926,-149.41777)">
                <g transform="matrix(166.666667,0,0,166.666667,1397.576823,452.650391)">
                </g>
                <text x="123px" y="452.65px" style="font-family:'Arial-BoldMT', 'Arial', sans-serif;font-weight:700;font-size:166.667px;fill:white;">INFORMA<tspan x="888.299px 990.106px " y="452.65px 452.65px ">TI</tspan>QUE</text>
            </g>
            <g transform="matrix(1,0,0,0.668471,-15.340673,-6.168465)">
                <rect x="36" y="51" width="1189" height="277" style="fill:rgb(0,137,183);"/>
            </g>
            <g transform="matrix(0.678266,0,0,0.678266,98.432926,-149.41777)">
                <g transform="matrix(166.666667,0,0,166.666667,1397.576823,452.650391)">
                </g>
                <text x="123px" y="452.65px" style="font-family:'Arial-BoldMT', 'Arial', sans-serif;font-weight:700;font-size:166.667px;fill:white;">INFORMA<tspan x="888.299px 990.106px " y="452.65px 452.65px ">TI</tspan>QUE</text>
            </g>
        </g>
        <g transform="matrix(1,0,0,1,30.498152,1311.521085)">
            <g transform="matrix(1,0,0,0.668471,-15.340673,-6.168465)">
                <rect x="36" y="51" width="1189" height="277" style="fill:rgb(0,137,183);"/>
            </g>
            <g transform="matrix(0.678266,0,0,0.678266,98.432926,-149.41777)">
                <g transform="matrix(166.666667,0,0,166.666667,1397.576823,452.650391)">
                </g>
                <text x="123px" y="452.65px" style="font-family:'Arial-BoldMT', 'Arial', sans-serif;font-weight:700;font-size:166.667px;fill:white;">INFORMA<tspan x="888.299px 990.106px " y="452.65px 452.65px ">TI</tspan>QUE</text>
            </g>
            <g transform="matrix(1,0,0,0.668471,-15.340673,-6.168465)">
                <rect x="36" y="51" width="1189" height="277" style="fill:rgb(0,137,183);"/>
            </g>
            <g transform="matrix(0.678266,0,0,0.678266,98.432926,-149.41777)">
                <g transform="matrix(166.666667,0,0,166.666667,1397.576823,452.650391)">
                </g>
                <text x="123px" y="452.65px" style="font-family:'Arial-BoldMT', 'Arial', sans-serif;font-weight:700;font-size:166.667px;fill:white;">INFORMA<tspan x="888.299px 990.106px " y="452.65px 452.65px ">TI</tspan>QUE</text>
            </g>
        </g>
        <g transform="matrix(1,0,0,1,1242.836731,1311.521085)">
            <g transform="matrix(1,0,0,0.668471,-15.340673,-6.168465)">
                <rect x="36" y="51" width="1189" height="277" style="fill:rgb(0,137,183);"/>
            </g>
            <g transform="matrix(0.678266,0,0,0.678266,98.432926,-149.41777)">
                <g transform="matrix(166.666667,0,0,166.666667,1397.576823,452.650391)">
                </g>
                <text x="123px" y="452.65px" style="font-family:'Arial-BoldMT', 'Arial', sans-serif;font-weight:700;font-size:166.667px;fill:white;">INFORMA<tspan x="888.299px 990.106px " y="452.65px 452.65px ">TI</tspan>QUE</text>
            </g>
            <g transform="matrix(1,0,0,0.668471,-15.340673,-6.168465)">
                <rect x="36" y="51" width="1189" height="277" style="fill:rgb(0,137,183);"/>
            </g>
            <g transform="matrix(0.678266,0,0,0.678266,98.432926,-149.41777)">
                <g transform="matrix(166.666667,0,0,166.666667,1397.576823,452.650391)">
                </g>
                <text x="123px" y="452.65px" style="font-family:'Arial-BoldMT', 'Arial', sans-serif;font-weight:700;font-size:166.667px;fill:white;">INFORMA<tspan x="888.299px 990.106px " y="452.65px 452.65px ">TI</tspan>QUE</text>
            </g>
        </g>
        <g transform="matrix(1,0,0,1,30.498152,1528.855895)">
            <g transform="matrix(1,0,0,0.668471,-15.340673,-6.168465)">
                <rect x="36" y="51" width="1189" height="277" style="fill:rgb(0,137,183);"/>
            </g>
            <g transform="matrix(0.678266,0,0,0.678266,98.432926,-149.41777)">
                <g transform="matrix(166.666667,0,0,166.666667,1397.576823,452.650391)">
                </g>
                <text x="123px" y="452.65px" style="font-family:'Arial-BoldMT', 'Arial', sans-serif;font-weight:700;font-size:166.667px;fill:white;">INFORMA<tspan x="888.299px 990.106px " y="452.65px 452.65px ">TI</tspan>QUE</text>
            </g>
            <g transform="matrix(1,0,0,0.668471,-15.340673,-6.168465)">
                <rect x="36" y="51" width="1189" height="277" style="fill:rgb(0,137,183);"/>
            </g>
            <g transform="matrix(0.678266,0,0,0.678266,98.432926,-149.41777)">
                <g transform="matrix(166.666667,0,0,166.666667,1397.576823,452.650391)">
                </g>
                <text x="123px" y="452.65px" style="font-family:'Arial-BoldMT', 'Arial', sans-serif;font-weight:700;font-size:166.667px;fill:white;">INFORMA<tspan x="888.299px 990.106px " y="452.65px 452.65px ">TI</tspan>QUE</text>
            </g>
        </g>
        <g transform="matrix(1,0,0,1,1242.836731,1528.855895)">
            <g transform="matrix(1,0,0,0.668471,-15.340673,-6.168465)">
                <rect x="36" y="51" width="1189" height="277" style="fill:rgb(0,137,183);"/>
            </g>
            <g transform="matrix(0.678266,0,0,0.678266,98.432926,-149.41777)">
                <g transform="matrix(166.666667,0,0,166.666667,1397.576823,452.650391)">
                </g>
                <text x="123px" y="452.65px" style="font-family:'Arial-BoldMT', 'Arial', sans-serif;font-weight:700;font-size:166.667px;fill:white;">INFORMA<tspan x="888.299px 990.106px " y="452.65px 452.65px ">TI</tspan>QUE</text>
            </g>
            <g transform="matrix(1,0,0,0.668471,-15.340673,-6.168465)">
                <rect x="36" y="51" width="1189" height="277" style="fill:rgb(0,137,183);"/>
            </g>
            <g transform="matrix(0.678266,0,0,0.678266,98.432926,-149.41777)">
                <g transform="matrix(166.666667,0,0,166.666667,1397.576823,452.650391)">
                </g>
                <text x="123px" y="452.65px" style="font-family:'Arial-BoldMT', 'Arial', sans-serif;font-weight:700;font-size:166.667px;fill:white;">INFORMA<tspan x="888.299px 990.106px " y="452.65px 452.65px ">TI</tspan>QUE</text>
            </g>
        </g>
        <g transform="matrix(1,0,0,1,30.498152,1738.54613)">
            <g transform="matrix(1,0,0,0.668471,-15.340673,-6.168465)">
                <rect x="36" y="51" width="1189" height="277" style="fill:rgb(0,137,183);"/>
            </g>
            <g transform="matrix(0.678266,0,0,0.678266,98.432926,-149.41777)">
                <g transform="matrix(166.666667,0,0,166.666667,1397.576823,452.650391)">
                </g>
                <text x="123px" y="452.65px" style="font-family:'Arial-BoldMT', 'Arial', sans-serif;font-weight:700;font-size:166.667px;fill:white;">INFORMA<tspan x="888.299px 990.106px " y="452.65px 452.65px ">TI</tspan>QUE</text>
            </g>
            <g transform="matrix(1,0,0,0.668471,-15.340673,-6.168465)">
                <rect x="36" y="51" width="1189" height="277" style="fill:rgb(0,137,183);"/>
            </g>
            <g transform="matrix(0.678266,0,0,0.678266,98.432926,-149.41777)">
                <g transform="matrix(166.666667,0,0,166.666667,1397.576823,452.650391)">
                </g>
                <text x="123px" y="452.65px" style="font-family:'Arial-BoldMT', 'Arial', sans-serif;font-weight:700;font-size:166.667px;fill:white;">INFORMA<tspan x="888.299px 990.106px " y="452.65px 452.65px ">TI</tspan>QUE</text>
            </g>
        </g>
        <g transform="matrix(1,0,0,1,1242.836731,1738.54613)">
            <g transform="matrix(1,0,0,0.668471,-15.340673,-6.168465)">
                <rect x="36" y="51" width="1189" height="277" style="fill:rgb(0,137,183);"/>
            </g>
            <g transform="matrix(0.678266,0,0,0.678266,98.432926,-149.41777)">
                <g transform="matrix(166.666667,0,0,166.666667,1397.576823,452.650391)">
                </g>
                <text x="123px" y="452.65px" style="font-family:'Arial-BoldMT', 'Arial', sans-serif;font-weight:700;font-size:166.667px;fill:white;">INFORMA<tspan x="888.299px 990.106px " y="452.65px 452.65px ">TI</tspan>QUE</text>
            </g>
            <g transform="matrix(1,0,0,0.668471,-15.340673,-6.168465)">
                <rect x="36" y="51" width="1189" height="277" style="fill:rgb(0,137,183);"/>
            </g>
            <g transform="matrix(0.678266,0,0,0.678266,98.432926,-149.41777)">
                <g transform="matrix(166.666667,0,0,166.666667,1397.576823,452.650391)">
                </g>
                <text x="123px" y="452.65px" style="font-family:'Arial-BoldMT', 'Arial', sans-serif;font-weight:700;font-size:166.667px;fill:white;">INFORMA<tspan x="888.299px 990.106px " y="452.65px 452.65px ">TI</tspan>QUE</text>
            </g>
        </g>
        <g transform="matrix(1,0,0,1,30.498152,1955.880941)">
            <g transform="matrix(1,0,0,0.668471,-15.340673,-6.168465)">
                <rect x="36" y="51" width="1189" height="277" style="fill:rgb(0,137,183);"/>
            </g>
            <g transform="matrix(0.678266,0,0,0.678266,98.432926,-149.41777)">
                <g transform="matrix(166.666667,0,0,166.666667,1397.576823,452.650391)">
                </g>
                <text x="123px" y="452.65px" style="font-family:'Arial-BoldMT', 'Arial', sans-serif;font-weight:700;font-size:166.667px;fill:white;">INFORMA<tspan x="888.299px 990.106px " y="452.65px 452.65px ">TI</tspan>QUE</text>
            </g>
            <g transform="matrix(1,0,0,0.668471,-15.340673,-6.168465)">
                <rect x="36" y="51" width="1189" height="277" style="fill:rgb(0,137,183);"/>
            </g>
            <g transform="matrix(0.678266,0,0,0.678266,98.432926,-149.41777)">
                <g transform="matrix(166.666667,0,0,166.666667,1397.576823,452.650391)">
                </g>
                <text x="123px" y="452.65px" style="font-family:'Arial-BoldMT', 'Arial', sans-serif;font-weight:700;font-size:166.667px;fill:white;">INFORMA<tspan x="888.299px 990.106px " y="452.65px 452.65px ">TI</tspan>QUE</text>
            </g>
        </g>
        <g transform="matrix(1,0,0,1,1242.836731,1955.880941)">
            <g transform="matrix(1,0,0,0.668471,-15.340673,-6.168465)">
                <rect x="36" y="51" width="1189" height="277" style="fill:rgb(0,137,183);"/>
            </g>
            <g transform="matrix(0.678266,0,0,0.678266,98.432926,-149.41777)">
                <g transform="matrix(166.666667,0,0,166.666667,1397.576823,452.650391)">
                </g>
                <text x="123px" y="452.65px" style="font-family:'Arial-BoldMT', 'Arial', sans-serif;font-weight:700;font-size:166.667px;fill:white;">INFORMA<tspan x="888.299px 990.106px " y="452.65px 452.65px ">TI</tspan>QUE</text>
            </g>
            <g transform="matrix(1,0,0,0.668471,-15.340673,-6.168465)">
                <rect x="36" y="51" width="1189" height="277" style="fill:rgb(0,137,183);"/>
            </g>
            <g transform="matrix(0.678266,0,0,0.678266,98.432926,-149.41777)">
                <g transform="matrix(166.666667,0,0,166.666667,1397.576823,452.650391)">
                </g>
                <text x="123px" y="452.65px" style="font-family:'Arial-BoldMT', 'Arial', sans-serif;font-weight:700;font-size:166.667px;fill:white;">INFORMA<tspan x="888.299px 990.106px " y="452.65px 452.65px ">TI</tspan>QUE</text>
            </g>
        </g>
        <g transform="matrix(1,0,0,1,30.498152,2173.215693)">
            <g transform="matrix(1,0,0,0.668471,-15.340673,-6.168465)">
                <rect x="36" y="51" width="1189" height="277" style="fill:rgb(0,137,183);"/>
            </g>
            <g transform="matrix(0.678266,0,0,0.678266,98.432926,-149.41777)">
                <g transform="matrix(166.666667,0,0,166.666667,1397.576823,452.650391)">
                </g>
                <text x="123px" y="452.65px" style="font-family:'Arial-BoldMT', 'Arial', sans-serif;font-weight:700;font-size:166.667px;fill:white;">INFORMA<tspan x="888.299px 990.106px " y="452.65px 452.65px ">TI</tspan>QUE</text>
            </g>
            <g transform="matrix(1,0,0,0.668471,-15.340673,-6.168465)">
                <rect x="36" y="51" width="1189" height="277" style="fill:rgb(0,137,183);"/>
            </g>
            <g transform="matrix(0.678266,0,0,0.678266,98.432926,-149.41777)">
                <g transform="matrix(166.666667,0,0,166.666667,1397.576823,452.650391)">
                </g>
                <text x="123px" y="452.65px" style="font-family:'Arial-BoldMT', 'Arial', sans-serif;font-weight:700;font-size:166.667px;fill:white;">INFORMA<tspan x="888.299px 990.106px " y="452.65px 452.65px ">TI</tspan>QUE</text>
            </g>
        </g>
        <g transform="matrix(1,0,0,1,1242.836731,2173.215693)">
            <g transform="matrix(1,0,0,0.668471,-15.340673,-6.168465)">
                <rect x="36" y="51" width="1189" height="277" style="fill:rgb(0,137,183);"/>
            </g>
            <g transform="matrix(0.678266,0,0,0.678266,98.432926,-149.41777)">
                <g transform="matrix(166.666667,0,0,166.666667,1397.576823,452.650391)">
                </g>
                <text x="123px" y="452.65px" style="font-family:'Arial-BoldMT', 'Arial', sans-serif;font-weight:700;font-size:166.667px;fill:white;">INFORMA<tspan x="888.299px 990.106px " y="452.65px 452.65px ">TI</tspan>QUE</text>
            </g>
            <g transform="matrix(1,0,0,0.668471,-15.340673,-6.168465)">
                <rect x="36" y="51" width="1189" height="277" style="fill:rgb(0,137,183);"/>
            </g>
            <g transform="matrix(0.678266,0,0,0.678266,98.432926,-149.41777)">
                <g transform="matrix(166.666667,0,0,166.666667,1397.576823,452.650391)">
                </g>
                <text x="123px" y="452.65px" style="font-family:'Arial-BoldMT', 'Arial', sans-serif;font-weight:700;font-size:166.667px;fill:white;">INFORMA<tspan x="888.299px 990.106px " y="452.65px 452.65px ">TI</tspan>QUE</text>
            </g>
        </g>
        <g transform="matrix(1,0,0,1,30.498152,2385.720854)">
            <g transform="matrix(1,0,0,0.668471,-15.340673,-6.168465)">
                <rect x="36" y="51" width="1189" height="277" style="fill:rgb(0,137,183);"/>
            </g>
            <g transform="matrix(0.678266,0,0,0.678266,98.432926,-149.41777)">
                <g transform="matrix(166.666667,0,0,166.666667,1397.576823,452.650391)">
                </g>
                <text x="123px" y="452.65px" style="font-family:'Arial-BoldMT', 'Arial', sans-serif;font-weight:700;font-size:166.667px;fill:white;">INFORMA<tspan x="888.299px 990.106px " y="452.65px 452.65px ">TI</tspan>QUE</text>
            </g>
            <g transform="matrix(1,0,0,0.668471,-15.340673,-6.168465)">
                <rect x="36" y="51" width="1189" height="277" style="fill:rgb(0,137,183);"/>
            </g>
            <g transform="matrix(0.678266,0,0,0.678266,98.432926,-149.41777)">
                <g transform="matrix(166.666667,0,0,166.666667,1397.576823,452.650391)">
                </g>
                <text x="123px" y="452.65px" style="font-family:'Arial-BoldMT', 'Arial', sans-serif;font-weight:700;font-size:166.667px;fill:white;">INFORMA<tspan x="888.299px 990.106px " y="452.65px 452.65px ">TI</tspan>QUE</text>
            </g>
        </g>
        <g transform="matrix(1,0,0,1,1242.836731,2385.720854)">
            <g transform="matrix(1,0,0,0.668471,-15.340673,-6.168465)">
                <rect x="36" y="51" width="1189" height="277" style="fill:rgb(0,137,183);"/>
            </g>
            <g transform="matrix(0.678266,0,0,0.678266,98.432926,-149.41777)">
                <g transform="matrix(166.666667,0,0,166.666667,1397.576823,452.650391)">
                </g>
                <text x="123px" y="452.65px" style="font-family:'Arial-BoldMT', 'Arial', sans-serif;font-weight:700;font-size:166.667px;fill:white;">INFORMA<tspan x="888.299px 990.106px " y="452.65px 452.65px ">TI</tspan>QUE</text>
            </g>
            <g transform="matrix(1,0,0,0.668471,-15.340673,-6.168465)">
                <rect x="36" y="51" width="1189" height="277" style="fill:rgb(0,137,183);"/>
            </g>
            <g transform="matrix(0.678266,0,0,0.678266,98.432926,-149.41777)">
                <g transform="matrix(166.666667,0,0,166.666667,1397.576823,452.650391)">
                </g>
                <text x="123px" y="452.65px" style="font-family:'Arial-BoldMT', 'Arial', sans-serif;font-weight:700;font-size:166.667px;fill:white;">INFORMA<tspan x="888.299px 990.106px " y="452.65px 452.65px ">TI</tspan>QUE</text>
            </g>
        </g>
    </g>
</svg>
