<?xml version="1.0" encoding="UTF-8" standalone="no"?>
<!DOCTYPE svg PUBLIC "-//W3C//DTD SVG 1.1//EN" "http://www.w3.org/Graphics/SVG/1.1/DTD/svg11.dtd">
<svg width="100%" height="100%" viewBox="0 0 2481 3508" version="1.1" xmlns="http://www.w3.org/2000/svg" xmlns:xlink="http://www.w3.org/1999/xlink" xml:space="preserve" xmlns:serif="http://www.serif.com/" style="fill-rule:evenodd;clip-rule:evenodd;stroke-linejoin:round;stroke-miterlimit:2;">
    <g transform="matrix(0.678266,0,0,0.678266,-12.382772,33.024529)">
        <g transform="matrix(1.474348,0,0,0.98556,-20.076535,-9.263538)">
            <rect x="36" y="51" width="1189" height="277" style="fill:rgb(183,137,59);"/>
        </g>
        <g transform="matrix(1,0,0,1,-18,-222)">
            <g transform="matrix(166.666667,0,0,166.666667,1709.263021,452.650391)">
            </g>
            <text x="123px" y="452.65px" style="font-family:'Arial-BoldMT', 'Arial', sans-serif;font-weight:700;font-size:166.667px;fill:white;">INSTRUMENT<tspan x="1203.16px 1311.151px 1412.958px " y="452.65px 452.65px 452.65px ">ATI</tspan>ON</text>
        </g>
    </g>
    <g transform="matrix(0.683387,0,0,0.678692,1234.455781,2619.43983)">
        <g transform="matrix(1.474348,0,0,0.98556,-20.076535,-9.263538)">
            <rect x="36" y="51" width="1189" height="277" style="fill:rgb(183,137,59);"/>
        </g>
        <g transform="matrix(1,0,0,1,-18,-222)">
            <g transform="matrix(166.666667,0,0,166.666667,1709.263021,452.650391)">
            </g>
            <text x="123px" y="452.65px" style="font-family:'Arial-BoldMT', 'Arial', sans-serif;font-weight:700;font-size:166.667px;fill:white;">INSTRUMENT<tspan x="1203.16px 1311.151px 1412.958px " y="452.65px 452.65px 452.65px ">ATI</tspan>ON</text>
        </g>
    </g>
    <g transform="matrix(0.678266,0,0,0.678266,-12.382772,2856.190596)">
        <g transform="matrix(1.474348,0,0,0.98556,-20.076535,-9.263538)">
            <rect x="36" y="51" width="1189" height="277" style="fill:rgb(183,137,59);"/>
        </g>
        <g transform="matrix(1,0,0,1,-18,-222)">
            <g transform="matrix(166.666667,0,0,166.666667,1709.263021,452.650391)">
            </g>
            <text x="123px" y="452.65px" style="font-family:'Arial-BoldMT', 'Arial', sans-serif;font-weight:700;font-size:166.667px;fill:white;">INSTRUMENT<tspan x="1203.16px 1311.151px 1412.958px " y="452.65px 452.65px 452.65px ">ATI</tspan>ON</text>
        </g>
    </g>
    <g transform="matrix(0.683387,0,0,0.678692,1234.455781,2854.479172)">
        <g transform="matrix(1.474348,0,0,0.98556,-20.076535,-9.263538)">
            <rect x="36" y="51" width="1189" height="277" style="fill:rgb(183,137,59);"/>
        </g>
        <g transform="matrix(1,0,0,1,-18,-222)">
            <g transform="matrix(166.666667,0,0,166.666667,1709.263021,452.650391)">
            </g>
            <text x="123px" y="452.65px" style="font-family:'Arial-BoldMT', 'Arial', sans-serif;font-weight:700;font-size:166.667px;fill:white;">INSTRUMENT<tspan x="1203.16px 1311.151px 1412.958px " y="452.65px 452.65px 452.65px ">ATI</tspan>ON</text>
        </g>
    </g>
    <g transform="matrix(0.678266,0,0,0.678266,-12.382772,3091.454434)">
        <g transform="matrix(1.474348,0,0,0.98556,-20.076535,-9.263538)">
            <rect x="36" y="51" width="1189" height="277" style="fill:rgb(183,137,59);"/>
        </g>
        <g transform="matrix(1,0,0,1,-18,-222)">
            <g transform="matrix(166.666667,0,0,166.666667,1709.263021,452.650391)">
            </g>
            <text x="123px" y="452.65px" style="font-family:'Arial-BoldMT', 'Arial', sans-serif;font-weight:700;font-size:166.667px;fill:white;">INSTRUMENT<tspan x="1203.16px 1311.151px 1412.958px " y="452.65px 452.65px 452.65px ">ATI</tspan>ON</text>
        </g>
    </g>
    <g transform="matrix(0.683387,0,0,0.678692,1234.455781,3089.518514)">
        <g transform="matrix(1.474348,0,0,0.98556,-20.076535,-9.263538)">
            <rect x="36" y="51" width="1189" height="277" style="fill:rgb(183,137,59);"/>
        </g>
        <g transform="matrix(1,0,0,1,-18,-222)">
            <g transform="matrix(166.666667,0,0,166.666667,1709.263021,452.650391)">
            </g>
            <text x="123px" y="452.65px" style="font-family:'Arial-BoldMT', 'Arial', sans-serif;font-weight:700;font-size:166.667px;fill:white;">INSTRUMENT<tspan x="1203.16px 1311.151px 1412.958px " y="452.65px 452.65px 452.65px ">ATI</tspan>ON</text>
        </g>
    </g>
    <g transform="matrix(0.678266,0,0,0.678266,-12.382772,268.288368)">
        <g transform="matrix(1.474348,0,0,0.98556,-20.076535,-9.263538)">
            <rect x="36" y="51" width="1189" height="277" style="fill:rgb(183,137,59);"/>
        </g>
        <g transform="matrix(1,0,0,1,-18,-222)">
            <g transform="matrix(166.666667,0,0,166.666667,1709.263021,452.650391)">
            </g>
            <text x="123px" y="452.65px" style="font-family:'Arial-BoldMT', 'Arial', sans-serif;font-weight:700;font-size:166.667px;fill:white;">INSTRUMENT<tspan x="1203.16px 1311.151px 1412.958px " y="452.65px 452.65px 452.65px ">ATI</tspan>ON</text>
        </g>
    </g>
    <g transform="matrix(0.678266,0,0,0.678266,-12.382772,503.552207)">
        <g transform="matrix(1.474348,0,0,0.98556,-20.076535,-9.263538)">
            <rect x="36" y="51" width="1189" height="277" style="fill:rgb(183,137,59);"/>
        </g>
        <g transform="matrix(1,0,0,1,-18,-222)">
            <g transform="matrix(166.666667,0,0,166.666667,1709.263021,452.650391)">
            </g>
            <text x="123px" y="452.65px" style="font-family:'Arial-BoldMT', 'Arial', sans-serif;font-weight:700;font-size:166.667px;fill:white;">INSTRUMENT<tspan x="1203.16px 1311.151px 1412.958px " y="452.65px 452.65px 452.65px ">ATI</tspan>ON</text>
        </g>
    </g>
    <g transform="matrix(0.678266,0,0,0.678266,-12.382772,738.816046)">
        <g transform="matrix(1.474348,0,0,0.98556,-20.076535,-9.263538)">
            <rect x="36" y="51" width="1189" height="277" style="fill:rgb(183,137,59);"/>
        </g>
        <g transform="matrix(1,0,0,1,-18,-222)">
            <g transform="matrix(166.666667,0,0,166.666667,1709.263021,452.650391)">
            </g>
            <text x="123px" y="452.65px" style="font-family:'Arial-BoldMT', 'Arial', sans-serif;font-weight:700;font-size:166.667px;fill:white;">INSTRUMENT<tspan x="1203.16px 1311.151px 1412.958px " y="452.65px 452.65px 452.65px ">ATI</tspan>ON</text>
        </g>
    </g>
    <g transform="matrix(0.678266,0,0,0.678266,-12.382772,974.079885)">
        <g transform="matrix(1.474348,0,0,0.98556,-20.076535,-9.263538)">
            <rect x="36" y="51" width="1189" height="277" style="fill:rgb(183,137,59);"/>
        </g>
        <g transform="matrix(1,0,0,1,-18,-222)">
            <g transform="matrix(166.666667,0,0,166.666667,1709.263021,452.650391)">
            </g>
            <text x="123px" y="452.65px" style="font-family:'Arial-BoldMT', 'Arial', sans-serif;font-weight:700;font-size:166.667px;fill:white;">INSTRUMENT<tspan x="1203.16px 1311.151px 1412.958px " y="452.65px 452.65px 452.65px ">ATI</tspan>ON</text>
        </g>
    </g>
    <g transform="matrix(0.683387,0,0,0.678692,1235.463331,34.007066)">
        <g transform="matrix(1.474348,0,0,0.98556,-20.076535,-9.263538)">
            <rect x="36" y="51" width="1189" height="277" style="fill:rgb(183,137,59);"/>
        </g>
        <g transform="matrix(1,0,0,1,-18,-222)">
            <g transform="matrix(166.666667,0,0,166.666667,1709.263021,452.650391)">
            </g>
            <text x="123px" y="452.65px" style="font-family:'Arial-BoldMT', 'Arial', sans-serif;font-weight:700;font-size:166.667px;fill:white;">INSTRUMENT<tspan x="1203.16px 1311.151px 1412.958px " y="452.65px 452.65px 452.65px ">ATI</tspan>ON</text>
        </g>
    </g>
    <g transform="matrix(0.683387,0,0,0.678692,1236.470881,269.046408)">
        <g transform="matrix(1.474348,0,0,0.98556,-20.076535,-9.263538)">
            <rect x="36" y="51" width="1189" height="277" style="fill:rgb(183,137,59);"/>
        </g>
        <g transform="matrix(1,0,0,1,-18,-222)">
            <g transform="matrix(166.666667,0,0,166.666667,1709.263021,452.650391)">
            </g>
            <text x="123px" y="452.65px" style="font-family:'Arial-BoldMT', 'Arial', sans-serif;font-weight:700;font-size:166.667px;fill:white;">INSTRUMENT<tspan x="1203.16px 1311.151px 1412.958px " y="452.65px 452.65px 452.65px ">ATI</tspan>ON</text>
        </g>
    </g>
    <g transform="matrix(0.683387,0,0,0.678692,1233.44823,504.08575)">
        <g transform="matrix(1.474348,0,0,0.98556,-20.076535,-9.263538)">
            <rect x="36" y="51" width="1189" height="277" style="fill:rgb(183,137,59);"/>
        </g>
        <g transform="matrix(1,0,0,1,-18,-222)">
            <g transform="matrix(166.666667,0,0,166.666667,1709.263021,452.650391)">
            </g>
            <text x="123px" y="452.65px" style="font-family:'Arial-BoldMT', 'Arial', sans-serif;font-weight:700;font-size:166.667px;fill:white;">INSTRUMENT<tspan x="1203.16px 1311.151px 1412.958px " y="452.65px 452.65px 452.65px ">ATI</tspan>ON</text>
        </g>
    </g>
    <g transform="matrix(0.683387,0,0,0.678692,1233.44823,739.125092)">
        <g transform="matrix(1.474348,0,0,0.98556,-20.076535,-9.263538)">
            <rect x="36" y="51" width="1189" height="277" style="fill:rgb(183,137,59);"/>
        </g>
        <g transform="matrix(1,0,0,1,-18,-222)">
            <g transform="matrix(166.666667,0,0,166.666667,1709.263021,452.650391)">
            </g>
            <text x="123px" y="452.65px" style="font-family:'Arial-BoldMT', 'Arial', sans-serif;font-weight:700;font-size:166.667px;fill:white;">INSTRUMENT<tspan x="1203.16px 1311.151px 1412.958px " y="452.65px 452.65px 452.65px ">ATI</tspan>ON</text>
        </g>
    </g>
    <g transform="matrix(0.683387,0,0,0.678692,1233.44823,974.164435)">
        <g transform="matrix(1.474348,0,0,0.98556,-20.076535,-9.263538)">
            <rect x="36" y="51" width="1189" height="277" style="fill:rgb(183,137,59);"/>
        </g>
        <g transform="matrix(1,0,0,1,-18,-222)">
            <g transform="matrix(166.666667,0,0,166.666667,1709.263021,452.650391)">
            </g>
            <text x="123px" y="452.65px" style="font-family:'Arial-BoldMT', 'Arial', sans-serif;font-weight:700;font-size:166.667px;fill:white;">INSTRUMENT<tspan x="1203.16px 1311.151px 1412.958px " y="452.65px 452.65px 452.65px ">ATI</tspan>ON</text>
        </g>
    </g>
    <g transform="matrix(0.678266,0,0,0.678266,-12.382772,1209.343724)">
        <g transform="matrix(1.474348,0,0,0.98556,-20.076535,-9.263538)">
            <rect x="36" y="51" width="1189" height="277" style="fill:rgb(183,137,59);"/>
        </g>
        <g transform="matrix(1,0,0,1,-18,-222)">
            <g transform="matrix(166.666667,0,0,166.666667,1709.263021,452.650391)">
            </g>
            <text x="123px" y="452.65px" style="font-family:'Arial-BoldMT', 'Arial', sans-serif;font-weight:700;font-size:166.667px;fill:white;">INSTRUMENT<tspan x="1203.16px 1311.151px 1412.958px " y="452.65px 452.65px 452.65px ">ATI</tspan>ON</text>
        </g>
    </g>
    <g transform="matrix(0.683387,0,0,0.678692,1234.455781,1209.203777)">
        <g transform="matrix(1.474348,0,0,0.98556,-20.076535,-9.263538)">
            <rect x="36" y="51" width="1189" height="277" style="fill:rgb(183,137,59);"/>
        </g>
        <g transform="matrix(1,0,0,1,-18,-222)">
            <g transform="matrix(166.666667,0,0,166.666667,1709.263021,452.650391)">
            </g>
            <text x="123px" y="452.65px" style="font-family:'Arial-BoldMT', 'Arial', sans-serif;font-weight:700;font-size:166.667px;fill:white;">INSTRUMENT<tspan x="1203.16px 1311.151px 1412.958px " y="452.65px 452.65px 452.65px ">ATI</tspan>ON</text>
        </g>
    </g>
    <g transform="matrix(0.678266,0,0,0.678266,-12.382772,1444.607562)">
        <g transform="matrix(1.474348,0,0,0.98556,-20.076535,-9.263538)">
            <rect x="36" y="51" width="1189" height="277" style="fill:rgb(183,137,59);"/>
        </g>
        <g transform="matrix(1,0,0,1,-18,-222)">
            <g transform="matrix(166.666667,0,0,166.666667,1709.263021,452.650391)">
            </g>
            <text x="123px" y="452.65px" style="font-family:'Arial-BoldMT', 'Arial', sans-serif;font-weight:700;font-size:166.667px;fill:white;">INSTRUMENT<tspan x="1203.16px 1311.151px 1412.958px " y="452.65px 452.65px 452.65px ">ATI</tspan>ON</text>
        </g>
    </g>
    <g transform="matrix(0.683387,0,0,0.678692,1234.455781,1444.243119)">
        <g transform="matrix(1.474348,0,0,0.98556,-20.076535,-9.263538)">
            <rect x="36" y="51" width="1189" height="277" style="fill:rgb(183,137,59);"/>
        </g>
        <g transform="matrix(1,0,0,1,-18,-222)">
            <g transform="matrix(166.666667,0,0,166.666667,1709.263021,452.650391)">
            </g>
            <text x="123px" y="452.65px" style="font-family:'Arial-BoldMT', 'Arial', sans-serif;font-weight:700;font-size:166.667px;fill:white;">INSTRUMENT<tspan x="1203.16px 1311.151px 1412.958px " y="452.65px 452.65px 452.65px ">ATI</tspan>ON</text>
        </g>
    </g>
    <g transform="matrix(0.678266,0,0,0.678266,-12.382772,1679.871401)">
        <g transform="matrix(1.474348,0,0,0.98556,-20.076535,-9.263538)">
            <rect x="36" y="51" width="1189" height="277" style="fill:rgb(183,137,59);"/>
        </g>
        <g transform="matrix(1,0,0,1,-18,-222)">
            <g transform="matrix(166.666667,0,0,166.666667,1709.263021,452.650391)">
            </g>
            <text x="123px" y="452.65px" style="font-family:'Arial-BoldMT', 'Arial', sans-serif;font-weight:700;font-size:166.667px;fill:white;">INSTRUMENT<tspan x="1203.16px 1311.151px 1412.958px " y="452.65px 452.65px 452.65px ">ATI</tspan>ON</text>
        </g>
    </g>
    <g transform="matrix(0.683387,0,0,0.678692,1234.455781,1679.282461)">
        <g transform="matrix(1.474348,0,0,0.98556,-20.076535,-9.263538)">
            <rect x="36" y="51" width="1189" height="277" style="fill:rgb(183,137,59);"/>
        </g>
        <g transform="matrix(1,0,0,1,-18,-222)">
            <g transform="matrix(166.666667,0,0,166.666667,1709.263021,452.650391)">
            </g>
            <text x="123px" y="452.65px" style="font-family:'Arial-BoldMT', 'Arial', sans-serif;font-weight:700;font-size:166.667px;fill:white;">INSTRUMENT<tspan x="1203.16px 1311.151px 1412.958px " y="452.65px 452.65px 452.65px ">ATI</tspan>ON</text>
        </g>
    </g>
    <g transform="matrix(0.678266,0,0,0.678266,-12.382772,1915.13524)">
        <g transform="matrix(1.474348,0,0,0.98556,-20.076535,-9.263538)">
            <rect x="36" y="51" width="1189" height="277" style="fill:rgb(183,137,59);"/>
        </g>
        <g transform="matrix(1,0,0,1,-18,-222)">
            <g transform="matrix(166.666667,0,0,166.666667,1709.263021,452.650391)">
            </g>
            <text x="123px" y="452.65px" style="font-family:'Arial-BoldMT', 'Arial', sans-serif;font-weight:700;font-size:166.667px;fill:white;">INSTRUMENT<tspan x="1203.16px 1311.151px 1412.958px " y="452.65px 452.65px 452.65px ">ATI</tspan>ON</text>
        </g>
    </g>
    <g transform="matrix(0.683387,0,0,0.678692,1234.455781,1914.321803)">
        <g transform="matrix(1.474348,0,0,0.98556,-20.076535,-9.263538)">
            <rect x="36" y="51" width="1189" height="277" style="fill:rgb(183,137,59);"/>
        </g>
        <g transform="matrix(1,0,0,1,-18,-222)">
            <g transform="matrix(166.666667,0,0,166.666667,1709.263021,452.650391)">
            </g>
            <text x="123px" y="452.65px" style="font-family:'Arial-BoldMT', 'Arial', sans-serif;font-weight:700;font-size:166.667px;fill:white;">INSTRUMENT<tspan x="1203.16px 1311.151px 1412.958px " y="452.65px 452.65px 452.65px ">ATI</tspan>ON</text>
        </g>
    </g>
    <g transform="matrix(0.683387,0,0,0.678692,1234.455781,2149.361145)">
        <g transform="matrix(1.474348,0,0,0.98556,-20.076535,-9.263538)">
            <rect x="36" y="51" width="1189" height="277" style="fill:rgb(183,137,59);"/>
        </g>
        <g transform="matrix(1,0,0,1,-18,-222)">
            <g transform="matrix(166.666667,0,0,166.666667,1709.263021,452.650391)">
            </g>
            <text x="123px" y="452.65px" style="font-family:'Arial-BoldMT', 'Arial', sans-serif;font-weight:700;font-size:166.667px;fill:white;">INSTRUMENT<tspan x="1203.16px 1311.151px 1412.958px " y="452.65px 452.65px 452.65px ">ATI</tspan>ON</text>
        </g>
    </g>
    <g transform="matrix(0.683387,0,0,0.678692,1234.455781,2384.400488)">
        <g transform="matrix(1.474348,0,0,0.98556,-20.076535,-9.263538)">
            <rect x="36" y="51" width="1189" height="277" style="fill:rgb(183,137,59);"/>
        </g>
        <g transform="matrix(1,0,0,1,-18,-222)">
            <g transform="matrix(166.666667,0,0,166.666667,1709.263021,452.650391)">
            </g>
            <text x="123px" y="452.65px" style="font-family:'Arial-BoldMT', 'Arial', sans-serif;font-weight:700;font-size:166.667px;fill:white;">INSTRUMENT<tspan x="1203.16px 1311.151px 1412.958px " y="452.65px 452.65px 452.65px ">ATI</tspan>ON</text>
        </g>
    </g>
    <g transform="matrix(0.678266,0,0,0.678266,-12.382772,2385.662918)">
        <g transform="matrix(1.474348,0,0,0.98556,-20.076535,-9.263538)">
            <rect x="36" y="51" width="1189" height="277" style="fill:rgb(183,137,59);"/>
        </g>
        <g transform="matrix(1,0,0,1,-18,-222)">
            <g transform="matrix(166.666667,0,0,166.666667,1709.263021,452.650391)">
            </g>
            <text x="123px" y="452.65px" style="font-family:'Arial-BoldMT', 'Arial', sans-serif;font-weight:700;font-size:166.667px;fill:white;">INSTRUMENT<tspan x="1203.16px 1311.151px 1412.958px " y="452.65px 452.65px 452.65px ">ATI</tspan>ON</text>
        </g>
    </g>
    <g transform="matrix(0.678266,0,0,0.678266,-12.382772,2620.926757)">
        <g transform="matrix(1.474348,0,0,0.98556,-20.076535,-9.263538)">
            <rect x="36" y="51" width="1189" height="277" style="fill:rgb(183,137,59);"/>
        </g>
        <g transform="matrix(1,0,0,1,-18,-222)">
            <g transform="matrix(166.666667,0,0,166.666667,1709.263021,452.650391)">
            </g>
            <text x="123px" y="452.65px" style="font-family:'Arial-BoldMT', 'Arial', sans-serif;font-weight:700;font-size:166.667px;fill:white;">INSTRUMENT<tspan x="1203.16px 1311.151px 1412.958px " y="452.65px 452.65px 452.65px ">ATI</tspan>ON</text>
        </g>
    </g>
    <g transform="matrix(0.678266,0,0,0.678266,-12.382772,2150.399079)">
        <g transform="matrix(1.474348,0,0,0.98556,-20.076535,-9.263538)">
            <rect x="36" y="51" width="1189" height="277" style="fill:rgb(183,137,59);"/>
        </g>
        <g transform="matrix(1,0,0,1,-18,-222)">
            <g transform="matrix(166.666667,0,0,166.666667,1709.263021,452.650391)">
            </g>
            <text x="123px" y="452.65px" style="font-family:'Arial-BoldMT', 'Arial', sans-serif;font-weight:700;font-size:166.667px;fill:white;">INSTRUMENT<tspan x="1203.16px 1311.151px 1412.958px " y="452.65px 452.65px 452.65px ">ATI</tspan>ON</text>
        </g>
    </g>
</svg>
